<svg width="1440" height="680" viewBox="0 0 1440 680" fill="none" xmlns="http://www.w3.org/2000/svg">
<g clip-path="url(#clip0_1715_14680)">
<path d="M724.457 1201.87C665.065 1254.04 546.283 1254.04 486.891 1201.87C427.5 1149.7 427.5 1045.35 486.891 993.174C546.283 941 665.065 941 724.457 888.826C783.848 836.652 783.848 732.304 724.457 680.13C665.065 627.957 546.283 627.957 486.891 680.13C427.5 732.304 427.5 836.652 368.109 888.826C308.717 941 189.935 941 130.543 888.826C71.1522 836.652 71.1522 732.304 130.543 680.13C189.935 627.957 308.717 627.957 368.109 680.13C427.5 732.304 427.5 836.652 368.109 888.826C308.717 941 189.935 941 130.543 993.174C71.1522 1045.35 71.1522 1149.7 130.543 1201.87C189.935 1254.04 308.717 1254.04 368.109 1201.87C427.5 1149.7 427.5 1045.35 486.891 993.174C546.283 941 665.065 941 724.457 993.174C783.848 1045.35 783.848 1149.7 724.457 1201.87Z" fill="white"/>
<path d="M724.457 601.804C665.065 654.065 546.283 654.065 486.891 601.804C427.5 549.543 427.5 445.022 486.891 392.761C546.283 340.5 665.065 340.5 724.457 288.239C783.848 235.978 783.848 131.457 724.457 79.1957C665.065 26.9348 546.283 26.9348 486.891 79.1957C427.5 131.457 427.5 235.978 368.109 288.239C308.717 340.5 189.935 340.5 130.543 288.239C71.1522 235.978 71.1522 131.457 130.543 79.1957C189.935 26.9348 308.717 26.9348 368.109 79.1957C427.5 131.457 427.5 235.978 368.109 288.239C308.717 340.5 189.935 340.5 130.543 392.761C71.1522 445.022 71.1522 549.543 130.543 601.804C189.935 654.065 308.717 654.065 368.109 601.804C427.5 549.543 427.5 445.022 486.891 392.761C546.283 340.5 665.065 340.5 724.457 392.761C783.848 445.022 783.848 549.543 724.457 601.804Z" fill="white"/>
</g>
<defs>
<clipPath id="clip0_1715_14680">
<rect width="1440" height="680" fill="white"/>
</clipPath>
</defs>
</svg>
