<svg width="19" height="18" viewBox="0 0 19 18" fill="none" xmlns="http://www.w3.org/2000/svg">
<g opacity="0.4">
<path fill-rule="evenodd" clip-rule="evenodd" d="M7.61842 8.35866C7.23197 8.35866 6.9264 8.64199 6.9264 9.00033C6.9264 9.35033 7.23197 9.64199 7.61842 9.64199H13.0108V13.6253C13.0108 15.667 11.2223 17.3337 9.01145 17.3337H4.63464C2.43276 17.3337 0.644287 15.6753 0.644287 13.6337V4.37533C0.644287 2.32533 2.44174 0.666992 4.64363 0.666992H9.02942C11.2223 0.666992 13.0108 2.32533 13.0108 4.36699V8.35866H7.61842ZM16.2175 6.11717L18.7968 8.54217C18.9293 8.66717 18.9999 8.8255 18.9999 9.0005C18.9999 9.16716 18.9293 9.33383 18.7968 9.4505L16.2175 11.8755C16.085 12.0005 15.9083 12.0672 15.7405 12.0672C15.5638 12.0672 15.3872 12.0005 15.2547 11.8755C14.9897 11.6255 14.9897 11.2172 15.2547 10.9672L16.668 9.64217H13.011V8.35883H16.668L15.2547 7.03383C14.9897 6.78383 14.9897 6.3755 15.2547 6.1255C15.5197 5.86717 15.9525 5.86717 16.2175 6.11717Z" fill="#030229"/>
</g>
</svg>
