<svg width="20" height="19" viewBox="0 0 20 19" fill="none" xmlns="http://www.w3.org/2000/svg">
      <path
        d="M1.81818 4.13636L9.09091 8.68182L16.3636 4.13636V6.86364H18.1818V2.31818C18.1818 1.31818 17.3636 0.5 16.3636 0.5H1.81818C0.818182 0.5 0.0090909 1.31818 0.0090909 2.31818L0 13.2273C0 14.2273 0.818182 15.0455 1.81818 15.0455H10.9091V13.2273H1.81818V4.13636ZM16.3636 2.31818L9.09091 6.86364L1.81818 2.31818H16.3636Z"
        fill="#211252"
      />
      <path
        d="M18.1821 11.409V15.0454C18.1821 16.0454 17.3639 16.8636 16.3639 16.8636C15.3639 16.8636 14.5457 16.0454 14.5457 15.0454V10.9545C14.5457 10.6999 14.7457 10.4999 15.0003 10.4999C15.2548 10.4999 15.4548 10.6999 15.4548 10.9545V15.0454H17.273V10.9545C17.273 10.3517 17.0335 9.77365 16.6073 9.34743C16.1811 8.92121 15.603 8.68176 15.0003 8.68176C14.3975 8.68176 13.8194 8.92121 13.3932 9.34743C12.967 9.77365 12.7275 10.3517 12.7275 10.9545V15.0454C12.7275 17.0545 14.3548 18.6818 16.3639 18.6818C18.373 18.6818 20.0003 17.0545 20.0003 15.0454V11.409H18.1821Z"
        fill="#211252"
      />
    </svg>