<svg width="20" height="17" viewBox="0 0 20 17" fill="none" xmlns="http://www.w3.org/2000/svg">
      <path
        d="M18.0005 0.499939H4.00049C2.89749 0.499939 2.00049 1.39694 2.00049 2.49994V7.49994H4.00049V4.49994L10.4005 9.29994C10.5736 9.42961 10.7842 9.49969 11.0005 9.49969C11.2168 9.49969 11.4273 9.42961 11.6005 9.29994L18.0005 4.49994V13.4999H10.0005V15.4999H18.0005C19.1035 15.4999 20.0005 14.6029 20.0005 13.4999V2.49994C20.0005 1.39694 19.1035 0.499939 18.0005 0.499939ZM11.0005 7.24994L4.66649 2.49994H17.3345L11.0005 7.24994Z"
        fill="#211252"
      />
      <path
        d="M0 8.50006H7V10.5001H0V8.50006ZM2 11.5001H8V13.5001H2V11.5001ZM5 14.5001H9V16.5001H5V14.5001Z"
        fill="#211252"
      />
    </svg>