<svg width="26" height="32" viewBox="0 0 26 32" fill="none" xmlns="http://www.w3.org/2000/svg">
<g clip-path="url(#clip0_2528_9107)">
<path d="M11.3696 16.682C11.0633 16.6773 10.8531 16.4684 10.8251 16.1286C10.773 15.4924 10.5942 14.9124 10.1631 14.4231C9.69604 13.8924 9.11417 13.5927 8.41353 13.5179C8.30076 13.5059 8.18599 13.4992 8.07522 13.4752C7.79563 13.4144 7.63815 13.2389 7.64682 12.9492C7.6555 12.6608 7.82299 12.5119 8.10258 12.4432C8.57034 12.329 9.06879 12.2609 9.48851 12.0447C10.2392 11.6575 10.6603 10.9873 10.7784 10.1415C10.7997 9.98735 10.8064 9.83048 10.8398 9.67895C10.8945 9.42996 11.0506 9.27577 11.3122 9.25974C11.5844 9.24306 11.7693 9.37122 11.8493 9.63356C11.876 9.72167 11.8867 9.81646 11.892 9.90858C11.9688 11.271 13.0591 12.331 14.3363 12.4111C14.8481 12.4432 15.0623 12.6314 15.063 12.9625C15.0643 13.303 14.8314 13.4732 14.3069 13.5166C12.9991 13.624 12.0228 14.6333 11.8954 16.0178C11.87 16.2901 11.8186 16.5345 11.5264 16.6419C11.469 16.6633 11.4069 16.6726 11.3702 16.682H11.3696ZM12.3238 12.9538C12.0362 12.6755 11.6238 12.2763 11.3482 12.0093C11.0806 12.2736 10.6669 12.6828 10.39 12.9565C10.6716 13.2442 11.076 13.6587 11.3415 13.9298C11.6278 13.6454 12.0288 13.2476 12.3238 12.9538Z" fill="#004EEC"/>
<path d="M18.972 5.83543C18.0391 6.6131 17.163 7.3427 16.2875 8.07231C16.1841 8.15842 16.0834 8.24921 15.9739 8.32797C15.7083 8.51955 15.4014 8.49886 15.2166 8.28392C15.0177 8.05162 15.0511 7.75056 15.3046 7.50825C15.3567 7.45819 15.4161 7.41546 15.4721 7.36874C16.3162 6.6645 17.1603 5.96026 18.0358 5.22998" fill="#004EEC"/>
<path d="M20.4265 7.54799C19.6671 8.18081 18.9278 8.7976 18.1871 9.41306C17.9636 9.59863 17.7467 9.79355 17.5091 9.95977C17.2643 10.1313 16.99 10.0839 16.8105 9.87165C16.6363 9.66605 16.647 9.38569 16.8432 9.16474C16.8979 9.10333 16.964 9.05126 17.0274 8.99786C17.6406 8.48587 19.0906 7.35574 19.7045 6.84375" fill="#004EEC"/>
<path d="M25.0001 12.0621C25.0001 6.19456 20.2284 1.42041 14.3624 1.42041C8.49632 1.42041 3.72461 6.19456 3.72461 12.0621C3.72461 16.9598 7.04899 21.0944 11.5591 22.328C11.5651 22.3727 11.5651 22.4248 11.5591 22.4869C11.391 24.2011 11.2395 25.9173 11.0834 27.6329C10.9819 28.7496 11.3343 29.6935 12.2384 30.3677C13.246 31.1194 14.3517 31.2088 15.4527 30.594C16.567 29.9725 17.0515 28.9672 16.9601 27.7063C16.8707 26.4747 16.7372 25.2465 16.6251 24.0169C16.5784 23.5082 16.535 22.9989 16.491 22.4896C21.3408 21.501 25.0008 17.2007 25.0008 12.0621H25.0001ZM14.7113 29.7863C13.9333 30.0934 13.0565 29.8544 12.5313 29.1889C12.2297 28.8064 12.0883 28.3631 12.1303 27.8818C12.2871 26.0749 12.4579 24.2692 12.6248 22.4635C12.6268 22.4448 12.6428 22.4282 12.6421 22.4288H15.408C15.4667 23.0396 15.5314 23.6864 15.5915 24.3333C15.6956 25.4581 15.795 26.5835 15.8998 27.7083C15.9885 28.6655 15.5361 29.4612 14.7113 29.7863ZM14.3624 21.6358C9.08552 21.6358 4.79225 17.3409 4.79225 12.0621C4.79225 6.78332 9.08552 2.48845 14.3624 2.48845C19.6392 2.48845 23.9325 6.78332 23.9325 12.0621C23.9325 17.3409 19.6392 21.6358 14.3624 21.6358Z" fill="#004EEC"/>
<path d="M14.3621 20.5249C9.69716 20.5249 5.90234 16.728 5.90234 12.062C5.90234 7.39601 9.69782 3.59912 14.3621 3.59912C19.0264 3.59912 22.8219 7.39601 22.8219 12.062C22.8219 16.728 19.0264 20.5249 14.3621 20.5249ZM14.3621 4.6665C10.2857 4.6665 6.96999 7.98411 6.96999 12.0614C6.96999 16.1386 10.2864 19.4562 14.3621 19.4562C18.4378 19.4562 21.7542 16.1386 21.7542 12.0614C21.7542 7.98411 18.4378 4.6665 14.3621 4.6665Z" fill="#004EEC"/>
<path d="M6.25416 3.45793C6.13739 3.19092 5.90251 3.13752 5.64227 3.11282C4.86155 3.04006 4.26768 2.46665 4.19561 1.69165C4.19161 1.6476 4.18627 1.60821 4.18026 1.5715C4.1429 1.21103 3.99276 1.03614 3.71584 1.0041C3.39621 0.967386 3.17067 1.15229 3.12329 1.51209C3.11262 1.55348 3.10528 1.59887 3.10194 1.6516C3.07325 2.1182 2.87774 2.53541 2.47804 2.77905C2.19778 2.94994 1.85747 3.03739 1.5325 3.11549C1.1982 3.19693 0.998013 3.36781 1.00001 3.66086C1.00202 3.94923 1.18352 4.13347 1.50982 4.18286C1.66329 4.20623 1.8221 4.21557 1.96757 4.26363C2.67422 4.49593 3.03922 5.00058 3.11529 5.73219C3.15265 6.09266 3.30279 6.26822 3.57971 6.29959C3.91469 6.33764 4.14623 6.13405 4.17826 5.7402C4.21563 5.27294 4.39112 4.88243 4.74678 4.5727C5.05106 4.30769 5.41673 4.22358 5.80375 4.17686C6.18343 4.13146 6.39496 3.78101 6.2535 3.4586L6.25416 3.45793ZM3.64911 4.09809L3.19669 3.6455L3.64911 3.19292L4.10152 3.6455L3.64911 4.09809Z" fill="#004EEC"/>
</g>
<defs>
<clipPath id="clip0_2528_9107">
<rect width="24" height="30" fill="white" transform="translate(1 1)"/>
</clipPath>
</defs>
</svg>
