<svg width="360" height="423" viewBox="0 0 360 423" fill="none" xmlns="http://www.w3.org/2000/svg">
<rect x="0.5" y="0.5" width="359" height="422" rx="11.5" fill="#F4F5FA"/>
<rect x="0.5" y="0.5" width="359" height="422" rx="11.5" stroke="#E1E2E9"/>
<path opacity="0.4" d="M190.11 182.333H169.888C161.98 182.333 156.667 176.787 156.667 168.53V149.472C156.667 141.216 161.98 135.667 169.888 135.667H190.112C198.021 135.667 203.333 141.216 203.333 149.472V168.53C203.333 176.787 198.021 182.333 190.11 182.333Z" fill="#5570F1"/>
<path fill-rule="evenodd" clip-rule="evenodd" d="M178.238 151.242C178.238 154.438 175.637 157.04 172.44 157.04C169.241 157.04 166.642 154.438 166.642 151.242C166.642 148.045 169.241 145.441 172.44 145.441C175.637 145.441 178.238 148.045 178.238 151.242ZM197.268 163.871C197.811 164.398 198.201 165 198.458 165.642C199.235 167.583 198.831 169.917 198 171.839C197.016 174.128 195.13 175.857 192.755 176.613C191.7 176.952 190.594 177.096 189.491 177.096H169.935C167.989 177.096 166.267 176.644 164.855 175.794C163.971 175.262 163.815 174.037 164.47 173.239C165.567 171.909 166.65 170.575 167.742 169.228C169.823 166.652 171.225 165.906 172.784 166.561C173.416 166.832 174.051 167.24 174.704 167.67C176.445 168.822 178.865 170.404 182.052 168.687C184.231 167.496 185.495 165.457 186.596 163.683L186.618 163.647C186.692 163.528 186.766 163.41 186.839 163.291C187.213 162.687 187.582 162.091 188 161.542C188.518 160.863 190.44 158.74 192.925 160.252C194.51 161.204 195.842 162.492 197.268 163.871Z" fill="#5570F1"/>
<g clip-path="url(#clip0_57_22849)">
<path d="M110.333 230.333L107 227L103.667 230.333" stroke="#5570F1" stroke-width="2" stroke-linecap="round" stroke-linejoin="round"/>
<path d="M107 227V234.5" stroke="#5570F1" stroke-width="2" stroke-linecap="round" stroke-linejoin="round"/>
<path d="M113.992 232.325C114.804 231.882 115.446 231.181 115.817 230.332C116.187 229.484 116.263 228.536 116.035 227.639C115.807 226.742 115.286 225.946 114.556 225.378C113.825 224.81 112.926 224.501 112 224.5H110.95C110.698 223.524 110.228 222.619 109.575 221.851C108.922 221.083 108.104 220.473 107.182 220.067C106.259 219.661 105.257 219.469 104.25 219.507C103.243 219.544 102.258 219.809 101.368 220.281C100.478 220.754 99.7066 221.423 99.1122 222.236C98.5177 223.05 98.1155 223.988 97.9358 224.98C97.756 225.971 97.8034 226.99 98.0743 227.961C98.3452 228.932 98.8327 229.828 99.5 230.583" stroke="#5570F1" stroke-width="2" stroke-linecap="round" stroke-linejoin="round"/>
<path d="M110.333 230.333L107 227L103.667 230.333" stroke="#5570F1" stroke-width="2" stroke-linecap="round" stroke-linejoin="round"/>
</g>
<path d="M132.183 220.364V232H130.427V220.364H132.183ZM134.603 232V223.273H136.234V224.693H136.342C136.523 224.212 136.821 223.837 137.234 223.568C137.647 223.295 138.141 223.159 138.717 223.159C139.3 223.159 139.789 223.295 140.183 223.568C140.58 223.841 140.874 224.216 141.063 224.693H141.154C141.362 224.227 141.694 223.856 142.148 223.58C142.603 223.299 143.145 223.159 143.773 223.159C144.565 223.159 145.211 223.407 145.711 223.903C146.215 224.4 146.467 225.148 146.467 226.148V232H144.768V226.307C144.768 225.716 144.607 225.288 144.285 225.023C143.963 224.758 143.578 224.625 143.131 224.625C142.578 224.625 142.148 224.795 141.842 225.136C141.535 225.473 141.381 225.907 141.381 226.438V232H139.688V226.199C139.688 225.725 139.54 225.345 139.245 225.057C138.95 224.769 138.565 224.625 138.092 224.625C137.77 224.625 137.472 224.71 137.2 224.881C136.931 225.047 136.713 225.28 136.546 225.58C136.383 225.879 136.302 226.225 136.302 226.619V232H134.603ZM151.283 232.193C150.73 232.193 150.23 232.091 149.783 231.886C149.336 231.678 148.982 231.377 148.721 230.983C148.463 230.589 148.335 230.106 148.335 229.534C148.335 229.042 148.429 228.636 148.619 228.318C148.808 228 149.064 227.748 149.386 227.562C149.708 227.377 150.067 227.237 150.465 227.142C150.863 227.047 151.268 226.975 151.681 226.926C152.204 226.866 152.628 226.816 152.954 226.778C153.28 226.737 153.516 226.67 153.664 226.58C153.812 226.489 153.886 226.341 153.886 226.136V226.097C153.886 225.6 153.746 225.216 153.465 224.943C153.189 224.67 152.776 224.534 152.227 224.534C151.655 224.534 151.204 224.661 150.874 224.915C150.549 225.165 150.323 225.443 150.198 225.75L148.602 225.386C148.791 224.856 149.067 224.428 149.431 224.102C149.799 223.773 150.221 223.534 150.698 223.386C151.175 223.235 151.677 223.159 152.204 223.159C152.552 223.159 152.922 223.201 153.312 223.284C153.706 223.364 154.073 223.511 154.414 223.727C154.759 223.943 155.041 224.252 155.261 224.653C155.48 225.051 155.59 225.568 155.59 226.205V232H153.931V230.807H153.863C153.753 231.027 153.588 231.242 153.369 231.455C153.149 231.667 152.867 231.843 152.522 231.983C152.177 232.123 151.764 232.193 151.283 232.193ZM151.653 230.83C152.122 230.83 152.524 230.737 152.857 230.551C153.194 230.366 153.45 230.123 153.624 229.824C153.802 229.521 153.891 229.197 153.891 228.852V227.727C153.831 227.788 153.713 227.845 153.539 227.898C153.369 227.947 153.174 227.991 152.954 228.028C152.734 228.062 152.52 228.095 152.312 228.125C152.103 228.152 151.929 228.174 151.789 228.193C151.46 228.235 151.158 228.305 150.886 228.403C150.617 228.502 150.401 228.644 150.238 228.83C150.079 229.011 149.999 229.254 149.999 229.557C149.999 229.977 150.155 230.295 150.465 230.511C150.776 230.723 151.172 230.83 151.653 230.83ZM161.512 235.455C160.819 235.455 160.222 235.364 159.722 235.182C159.226 235 158.821 234.759 158.506 234.46C158.192 234.161 157.957 233.833 157.802 233.477L159.262 232.875C159.364 233.042 159.501 233.218 159.671 233.403C159.845 233.593 160.08 233.754 160.376 233.886C160.675 234.019 161.059 234.085 161.529 234.085C162.173 234.085 162.705 233.928 163.126 233.614C163.546 233.303 163.756 232.807 163.756 232.125V230.409H163.648C163.546 230.595 163.398 230.801 163.205 231.028C163.016 231.256 162.754 231.453 162.421 231.619C162.088 231.786 161.654 231.869 161.12 231.869C160.431 231.869 159.809 231.708 159.256 231.386C158.707 231.061 158.272 230.581 157.95 229.949C157.631 229.312 157.472 228.53 157.472 227.602C157.472 226.674 157.629 225.879 157.944 225.216C158.262 224.553 158.698 224.045 159.251 223.693C159.804 223.337 160.431 223.159 161.131 223.159C161.673 223.159 162.111 223.25 162.444 223.432C162.777 223.61 163.037 223.818 163.222 224.057C163.412 224.295 163.558 224.506 163.66 224.688H163.785V223.273H165.45V232.193C165.45 232.943 165.275 233.559 164.927 234.04C164.578 234.521 164.107 234.877 163.512 235.108C162.921 235.339 162.254 235.455 161.512 235.455ZM161.495 230.46C161.984 230.46 162.397 230.347 162.734 230.119C163.075 229.888 163.332 229.559 163.506 229.131C163.684 228.699 163.773 228.182 163.773 227.58C163.773 226.992 163.686 226.475 163.512 226.028C163.338 225.581 163.082 225.233 162.745 224.983C162.408 224.729 161.991 224.602 161.495 224.602C160.984 224.602 160.558 224.735 160.217 225C159.876 225.261 159.618 225.617 159.444 226.068C159.273 226.519 159.188 227.023 159.188 227.58C159.188 228.152 159.275 228.653 159.45 229.085C159.624 229.517 159.881 229.854 160.222 230.097C160.567 230.339 160.991 230.46 161.495 230.46ZM171.489 232.176C170.629 232.176 169.889 231.992 169.268 231.625C168.65 231.254 168.173 230.733 167.836 230.062C167.503 229.388 167.336 228.598 167.336 227.693C167.336 226.799 167.503 226.011 167.836 225.33C168.173 224.648 168.643 224.116 169.245 223.733C169.851 223.35 170.559 223.159 171.37 223.159C171.862 223.159 172.34 223.241 172.802 223.403C173.264 223.566 173.679 223.822 174.046 224.17C174.414 224.519 174.703 224.972 174.915 225.528C175.128 226.081 175.234 226.754 175.234 227.545V228.148H168.296V226.875H173.569C173.569 226.428 173.478 226.032 173.296 225.688C173.114 225.339 172.859 225.064 172.529 224.864C172.203 224.663 171.821 224.562 171.381 224.562C170.904 224.562 170.487 224.68 170.131 224.915C169.779 225.146 169.506 225.449 169.313 225.824C169.124 226.195 169.029 226.598 169.029 227.034V228.028C169.029 228.612 169.131 229.108 169.336 229.517C169.544 229.926 169.834 230.239 170.205 230.455C170.576 230.667 171.01 230.773 171.506 230.773C171.828 230.773 172.122 230.727 172.387 230.636C172.652 230.542 172.881 230.402 173.075 230.216C173.268 230.03 173.415 229.801 173.518 229.528L175.126 229.818C174.997 230.292 174.766 230.706 174.433 231.062C174.103 231.415 173.688 231.689 173.188 231.886C172.692 232.08 172.126 232.176 171.489 232.176ZM183.658 225.403L182.119 225.676C182.054 225.479 181.952 225.292 181.812 225.114C181.675 224.936 181.49 224.79 181.255 224.676C181.02 224.562 180.727 224.506 180.374 224.506C179.893 224.506 179.492 224.614 179.17 224.83C178.848 225.042 178.687 225.316 178.687 225.653C178.687 225.945 178.795 226.18 179.011 226.358C179.227 226.536 179.575 226.682 180.056 226.795L181.442 227.114C182.246 227.299 182.844 227.585 183.238 227.972C183.632 228.358 183.829 228.86 183.829 229.477C183.829 230 183.677 230.466 183.374 230.875C183.075 231.28 182.656 231.598 182.119 231.83C181.585 232.061 180.965 232.176 180.261 232.176C179.283 232.176 178.486 231.968 177.869 231.551C177.251 231.131 176.872 230.534 176.732 229.761L178.374 229.511C178.477 229.939 178.687 230.263 179.005 230.483C179.323 230.699 179.738 230.807 180.249 230.807C180.806 230.807 181.251 230.691 181.585 230.46C181.918 230.225 182.085 229.939 182.085 229.602C182.085 229.33 181.982 229.1 181.778 228.915C181.577 228.729 181.268 228.589 180.852 228.494L179.374 228.17C178.56 227.985 177.958 227.689 177.567 227.284C177.181 226.879 176.988 226.366 176.988 225.744C176.988 225.229 177.132 224.778 177.42 224.392C177.708 224.006 178.105 223.705 178.613 223.489C179.121 223.269 179.702 223.159 180.357 223.159C181.3 223.159 182.043 223.364 182.585 223.773C183.126 224.178 183.484 224.722 183.658 225.403ZM193.607 232.176C192.789 232.176 192.075 231.989 191.465 231.614C190.855 231.239 190.382 230.714 190.045 230.04C189.708 229.366 189.539 228.578 189.539 227.676C189.539 226.771 189.708 225.979 190.045 225.301C190.382 224.623 190.855 224.097 191.465 223.722C192.075 223.347 192.789 223.159 193.607 223.159C194.425 223.159 195.139 223.347 195.749 223.722C196.359 224.097 196.833 224.623 197.17 225.301C197.507 225.979 197.675 226.771 197.675 227.676C197.675 228.578 197.507 229.366 197.17 230.04C196.833 230.714 196.359 231.239 195.749 231.614C195.139 231.989 194.425 232.176 193.607 232.176ZM193.613 230.75C194.143 230.75 194.583 230.61 194.931 230.33C195.28 230.049 195.537 229.676 195.704 229.21C195.874 228.744 195.96 228.231 195.96 227.67C195.96 227.114 195.874 226.602 195.704 226.136C195.537 225.667 195.28 225.29 194.931 225.006C194.583 224.722 194.143 224.58 193.613 224.58C193.079 224.58 192.636 224.722 192.283 225.006C191.935 225.29 191.675 225.667 191.505 226.136C191.338 226.602 191.255 227.114 191.255 227.67C191.255 228.231 191.338 228.744 191.505 229.21C191.675 229.676 191.935 230.049 192.283 230.33C192.636 230.61 193.079 230.75 193.613 230.75ZM205.1 228.381V223.273H206.805V232H205.134V230.489H205.043C204.843 230.955 204.521 231.343 204.077 231.653C203.638 231.96 203.091 232.114 202.435 232.114C201.875 232.114 201.379 231.991 200.947 231.744C200.519 231.494 200.182 231.125 199.935 230.636C199.693 230.148 199.572 229.544 199.572 228.824V223.273H201.271V228.619C201.271 229.214 201.435 229.687 201.765 230.04C202.094 230.392 202.522 230.568 203.049 230.568C203.367 230.568 203.683 230.489 203.998 230.33C204.316 230.17 204.579 229.93 204.788 229.608C205 229.286 205.104 228.877 205.1 228.381ZM220.788 223.273L217.623 232H215.805L212.634 223.273H214.458L216.668 229.989H216.759L218.964 223.273H220.788ZM222.384 232V223.273H224.083V232H222.384ZM223.242 221.926C222.947 221.926 222.693 221.828 222.481 221.631C222.272 221.43 222.168 221.191 222.168 220.915C222.168 220.634 222.272 220.396 222.481 220.199C222.693 219.998 222.947 219.898 223.242 219.898C223.538 219.898 223.79 219.998 223.998 220.199C224.21 220.396 224.316 220.634 224.316 220.915C224.316 221.191 224.21 221.43 223.998 221.631C223.79 221.828 223.538 221.926 223.242 221.926ZM229.636 232.17C228.931 232.17 228.302 231.991 227.749 231.631C227.2 231.267 226.768 230.75 226.454 230.08C226.143 229.405 225.988 228.597 225.988 227.653C225.988 226.71 226.145 225.903 226.46 225.233C226.778 224.562 227.213 224.049 227.766 223.693C228.319 223.337 228.946 223.159 229.647 223.159C230.189 223.159 230.624 223.25 230.954 223.432C231.287 223.61 231.545 223.818 231.727 224.057C231.912 224.295 232.056 224.506 232.158 224.688H232.261V220.364H233.96V232H232.3V230.642H232.158C232.056 230.828 231.908 231.04 231.715 231.278C231.526 231.517 231.264 231.725 230.931 231.903C230.598 232.081 230.166 232.17 229.636 232.17ZM230.011 230.722C230.499 230.722 230.912 230.593 231.249 230.335C231.59 230.074 231.848 229.712 232.022 229.25C232.2 228.788 232.289 228.25 232.289 227.636C232.289 227.03 232.202 226.5 232.028 226.045C231.853 225.591 231.598 225.237 231.261 224.983C230.924 224.729 230.507 224.602 230.011 224.602C229.499 224.602 229.073 224.735 228.732 225C228.391 225.265 228.134 225.627 227.96 226.085C227.789 226.544 227.704 227.061 227.704 227.636C227.704 228.22 227.791 228.744 227.965 229.21C228.139 229.676 228.397 230.045 228.738 230.318C229.083 230.587 229.507 230.722 230.011 230.722ZM240.146 232.176C239.286 232.176 238.545 231.992 237.924 231.625C237.307 231.254 236.829 230.733 236.492 230.062C236.159 229.388 235.992 228.598 235.992 227.693C235.992 226.799 236.159 226.011 236.492 225.33C236.829 224.648 237.299 224.116 237.901 223.733C238.507 223.35 239.216 223.159 240.026 223.159C240.519 223.159 240.996 223.241 241.458 223.403C241.92 223.566 242.335 223.822 242.702 224.17C243.07 224.519 243.36 224.972 243.572 225.528C243.784 226.081 243.89 226.754 243.89 227.545V228.148H236.952V226.875H242.225C242.225 226.428 242.134 226.032 241.952 225.688C241.771 225.339 241.515 225.064 241.185 224.864C240.86 224.663 240.477 224.562 240.038 224.562C239.56 224.562 239.144 224.68 238.788 224.915C238.435 225.146 238.163 225.449 237.969 225.824C237.78 226.195 237.685 226.598 237.685 227.034V228.028C237.685 228.612 237.788 229.108 237.992 229.517C238.201 229.926 238.49 230.239 238.862 230.455C239.233 230.667 239.666 230.773 240.163 230.773C240.485 230.773 240.778 230.727 241.043 230.636C241.308 230.542 241.538 230.402 241.731 230.216C241.924 230.03 242.072 229.801 242.174 229.528L243.782 229.818C243.653 230.292 243.422 230.706 243.089 231.062C242.759 231.415 242.344 231.689 241.844 231.886C241.348 232.08 240.782 232.176 240.146 232.176ZM239.259 222.108L240.589 219.489H242.379L240.617 222.108H239.259ZM249.451 232.176C248.633 232.176 247.919 231.989 247.309 231.614C246.699 231.239 246.226 230.714 245.888 230.04C245.551 229.366 245.383 228.578 245.383 227.676C245.383 226.771 245.551 225.979 245.888 225.301C246.226 224.623 246.699 224.097 247.309 223.722C247.919 223.347 248.633 223.159 249.451 223.159C250.269 223.159 250.983 223.347 251.593 223.722C252.203 224.097 252.676 224.623 253.013 225.301C253.351 225.979 253.519 226.771 253.519 227.676C253.519 228.578 253.351 229.366 253.013 230.04C252.676 230.714 252.203 231.239 251.593 231.614C250.983 231.989 250.269 232.176 249.451 232.176ZM249.457 230.75C249.987 230.75 250.426 230.61 250.775 230.33C251.123 230.049 251.381 229.676 251.548 229.21C251.718 228.744 251.803 228.231 251.803 227.67C251.803 227.114 251.718 226.602 251.548 226.136C251.381 225.667 251.123 225.29 250.775 225.006C250.426 224.722 249.987 224.58 249.457 224.58C248.923 224.58 248.479 224.722 248.127 225.006C247.779 225.29 247.519 225.667 247.349 226.136C247.182 226.602 247.099 227.114 247.099 227.67C247.099 228.231 247.182 228.744 247.349 229.21C247.519 229.676 247.779 230.049 248.127 230.33C248.479 230.61 248.923 230.75 249.457 230.75ZM261.955 225.403L260.415 225.676C260.351 225.479 260.249 225.292 260.109 225.114C259.972 224.936 259.787 224.79 259.552 224.676C259.317 224.562 259.023 224.506 258.671 224.506C258.19 224.506 257.789 224.614 257.467 224.83C257.145 225.042 256.984 225.316 256.984 225.653C256.984 225.945 257.092 226.18 257.308 226.358C257.523 226.536 257.872 226.682 258.353 226.795L259.739 227.114C260.542 227.299 261.141 227.585 261.535 227.972C261.929 228.358 262.126 228.86 262.126 229.477C262.126 230 261.974 230.466 261.671 230.875C261.372 231.28 260.953 231.598 260.415 231.83C259.881 232.061 259.262 232.176 258.558 232.176C257.58 232.176 256.783 231.968 256.165 231.551C255.548 231.131 255.169 230.534 255.029 229.761L256.671 229.511C256.773 229.939 256.984 230.263 257.302 230.483C257.62 230.699 258.035 230.807 258.546 230.807C259.103 230.807 259.548 230.691 259.881 230.46C260.215 230.225 260.381 229.939 260.381 229.602C260.381 229.33 260.279 229.1 260.075 228.915C259.874 228.729 259.565 228.589 259.148 228.494L257.671 228.17C256.857 227.985 256.254 227.689 255.864 227.284C255.478 226.879 255.285 226.366 255.285 225.744C255.285 225.229 255.429 224.778 255.717 224.392C256.004 224.006 256.402 223.705 256.91 223.489C257.417 223.269 257.999 223.159 258.654 223.159C259.597 223.159 260.34 223.364 260.881 223.773C261.423 224.178 261.781 224.722 261.955 225.403Z" fill="#5570F1"/>
<path d="M58.6745 252.818H59.9075V259.56C59.9075 260.256 59.7434 260.877 59.4153 261.424C59.0905 261.968 58.6315 262.397 58.0382 262.712C57.4449 263.023 56.7489 263.179 55.9501 263.179C55.1513 263.179 54.4553 263.023 53.862 262.712C53.2688 262.397 52.8081 261.968 52.4799 261.424C52.1551 260.877 51.9927 260.256 51.9927 259.56V252.818H53.2257V259.46C53.2257 259.957 53.335 260.4 53.5538 260.788C53.7725 261.172 54.0841 261.475 54.4885 261.697C54.8961 261.916 55.3833 262.026 55.9501 262.026C56.5169 262.026 57.0041 261.916 57.4118 261.697C57.8194 261.475 58.131 261.172 58.3464 260.788C58.5652 260.4 58.6745 259.957 58.6745 259.46V252.818ZM62.2106 265.864V255.364H63.3441V256.577H63.4833C63.5695 256.444 63.6888 256.275 63.8413 256.07C63.997 255.861 64.2191 255.675 64.5075 255.513C64.7991 255.347 65.1935 255.264 65.6907 255.264C66.3337 255.264 66.9005 255.425 67.391 255.746C67.8815 256.068 68.2643 256.524 68.5394 257.114C68.8145 257.704 68.9521 258.4 68.9521 259.202C68.9521 260.01 68.8145 260.711 68.5394 261.305C68.2643 261.895 67.8832 262.352 67.396 262.677C66.9087 262.998 66.3469 263.159 65.7106 263.159C65.2201 263.159 64.8273 263.078 64.5323 262.915C64.2373 262.75 64.0103 262.562 63.8512 262.354C63.6921 262.142 63.5695 261.966 63.4833 261.827H63.3839V265.864H62.2106ZM63.364 259.182C63.364 259.759 63.4485 260.267 63.6175 260.708C63.7866 261.146 64.0335 261.489 64.3583 261.737C64.6831 261.982 65.0808 262.105 65.5515 262.105C66.042 262.105 66.4513 261.976 66.7795 261.717C67.1109 261.455 67.3595 261.104 67.5252 260.663C67.6942 260.219 67.7788 259.725 67.7788 259.182C67.7788 258.645 67.6959 258.161 67.5302 257.73C67.3678 257.296 67.1209 256.953 66.7894 256.701C66.4613 256.446 66.0487 256.318 65.5515 256.318C65.0742 256.318 64.6732 256.439 64.3484 256.681C64.0236 256.92 63.7783 257.254 63.6126 257.685C63.4469 258.113 63.364 258.612 63.364 259.182ZM71.9151 252.818V263H70.7418V252.818H71.9151ZM77.1664 263.159C76.477 263.159 75.8721 262.995 75.3517 262.667C74.8347 262.339 74.4303 261.88 74.1387 261.29C73.8503 260.7 73.7061 260.01 73.7061 259.222C73.7061 258.426 73.8503 257.732 74.1387 257.138C74.4303 256.545 74.8347 256.085 75.3517 255.756C75.8721 255.428 76.477 255.264 77.1664 255.264C77.8558 255.264 78.459 255.428 78.976 255.756C79.4964 256.085 79.9007 256.545 80.1891 257.138C80.4808 257.732 80.6266 258.426 80.6266 259.222C80.6266 260.01 80.4808 260.7 80.1891 261.29C79.9007 261.88 79.4964 262.339 78.976 262.667C78.459 262.995 77.8558 263.159 77.1664 263.159ZM77.1664 262.105C77.69 262.105 78.1209 261.971 78.459 261.702C78.7971 261.434 79.0473 261.081 79.2097 260.643C79.3721 260.206 79.4533 259.732 79.4533 259.222C79.4533 258.711 79.3721 258.236 79.2097 257.795C79.0473 257.354 78.7971 256.998 78.459 256.726C78.1209 256.454 77.69 256.318 77.1664 256.318C76.6427 256.318 76.2118 256.454 75.8738 256.726C75.5357 256.998 75.2855 257.354 75.123 257.795C74.9606 258.236 74.8794 258.711 74.8794 259.222C74.8794 259.732 74.9606 260.206 75.123 260.643C75.2855 261.081 75.5357 261.434 75.8738 261.702C76.2118 261.971 76.6427 262.105 77.1664 262.105ZM84.6648 263.179C84.1809 263.179 83.7417 263.088 83.3473 262.906C82.9529 262.72 82.6397 262.453 82.4077 262.105C82.1757 261.754 82.0597 261.33 82.0597 260.832C82.0597 260.395 82.1458 260.04 82.3182 259.768C82.4905 259.493 82.7209 259.278 83.0092 259.122C83.2976 258.966 83.6158 258.85 83.9638 258.774C84.3151 258.695 84.6681 258.632 85.0227 258.585C85.4867 258.526 85.8629 258.481 86.1513 258.451C86.4429 258.418 86.6551 258.363 86.7876 258.287C86.9235 258.211 86.9915 258.078 86.9915 257.889V257.849C86.9915 257.359 86.8572 256.978 86.5888 256.706C86.3236 256.434 85.9209 256.298 85.3807 256.298C84.8205 256.298 84.3814 256.421 84.0632 256.666C83.745 256.911 83.5213 257.173 83.392 257.452L82.2784 257.054C82.4773 256.59 82.7424 256.229 83.0739 255.97C83.4086 255.708 83.7732 255.526 84.1676 255.423C84.5653 255.317 84.9564 255.264 85.3409 255.264C85.5862 255.264 85.8679 255.294 86.1861 255.354C86.5076 255.41 86.8175 255.528 87.1158 255.707C87.4174 255.886 87.6676 256.156 87.8665 256.517C88.0653 256.878 88.1648 257.362 88.1648 257.969V263H86.9915V261.966H86.9318C86.8523 262.132 86.7197 262.309 86.5341 262.498C86.3485 262.687 86.1016 262.848 85.7933 262.98C85.4851 263.113 85.1089 263.179 84.6648 263.179ZM84.8438 262.125C85.3078 262.125 85.6989 262.034 86.017 261.852C86.3385 261.669 86.5805 261.434 86.7429 261.146C86.9086 260.857 86.9915 260.554 86.9915 260.236V259.162C86.9418 259.222 86.8324 259.276 86.6634 259.326C86.4976 259.372 86.3054 259.414 86.0866 259.45C85.8712 259.483 85.6607 259.513 85.4553 259.54C85.2531 259.563 85.089 259.583 84.9631 259.599C84.6581 259.639 84.3731 259.704 84.108 259.793C83.8461 259.879 83.634 260.01 83.4716 260.186C83.3125 260.358 83.233 260.594 83.233 260.892C83.233 261.3 83.3838 261.608 83.6854 261.817C83.9903 262.022 84.3764 262.125 84.8438 262.125ZM93.1898 263.159C92.5534 263.159 91.9917 262.998 91.5044 262.677C91.0172 262.352 90.6361 261.895 90.361 261.305C90.0859 260.711 89.9483 260.01 89.9483 259.202C89.9483 258.4 90.0859 257.704 90.361 257.114C90.6361 256.524 91.0189 256.068 91.5094 255.746C91.9999 255.425 92.5667 255.264 93.2097 255.264C93.7069 255.264 94.0996 255.347 94.388 255.513C94.6796 255.675 94.9017 255.861 95.0542 256.07C95.2099 256.275 95.3309 256.444 95.4171 256.577H95.5165V252.818H96.6898V263H95.5563V261.827H95.4171C95.3309 261.966 95.2083 262.142 95.0492 262.354C94.8901 262.562 94.6631 262.75 94.3681 262.915C94.0731 263.078 93.6803 263.159 93.1898 263.159ZM93.3489 262.105C93.8195 262.105 94.2173 261.982 94.5421 261.737C94.8669 261.489 95.1138 261.146 95.2828 260.708C95.4519 260.267 95.5364 259.759 95.5364 259.182C95.5364 258.612 95.4535 258.113 95.2878 257.685C95.1221 257.254 94.8768 256.92 94.552 256.681C94.2272 256.439 93.8262 256.318 93.3489 256.318C92.8517 256.318 92.4374 256.446 92.106 256.701C91.7779 256.953 91.531 257.296 91.3652 257.73C91.2028 258.161 91.1216 258.645 91.1216 259.182C91.1216 259.725 91.2045 260.219 91.3702 260.663C91.5392 261.104 91.7878 261.455 92.1159 261.717C92.4474 261.976 92.8584 262.105 93.3489 262.105ZM105.186 263.179C104.702 263.179 104.263 263.088 103.869 262.906C103.474 262.72 103.161 262.453 102.929 262.105C102.697 261.754 102.581 261.33 102.581 260.832C102.581 260.395 102.667 260.04 102.84 259.768C103.012 259.493 103.242 259.278 103.531 259.122C103.819 258.966 104.137 258.85 104.485 258.774C104.837 258.695 105.19 258.632 105.544 258.585C106.008 258.526 106.384 258.481 106.673 258.451C106.964 258.418 107.177 258.363 107.309 258.287C107.445 258.211 107.513 258.078 107.513 257.889V257.849C107.513 257.359 107.379 256.978 107.11 256.706C106.845 256.434 106.442 256.298 105.902 256.298C105.342 256.298 104.903 256.421 104.585 256.666C104.267 256.911 104.043 257.173 103.914 257.452L102.8 257.054C102.999 256.59 103.264 256.229 103.595 255.97C103.93 255.708 104.295 255.526 104.689 255.423C105.087 255.317 105.478 255.264 105.862 255.264C106.108 255.264 106.389 255.294 106.708 255.354C107.029 255.41 107.339 255.528 107.637 255.707C107.939 255.886 108.189 256.156 108.388 256.517C108.587 256.878 108.686 257.362 108.686 257.969V263H107.513V261.966H107.453C107.374 262.132 107.241 262.309 107.056 262.498C106.87 262.687 106.623 262.848 106.315 262.98C106.007 263.113 105.63 263.179 105.186 263.179ZM105.365 262.125C105.829 262.125 106.22 262.034 106.539 261.852C106.86 261.669 107.102 261.434 107.264 261.146C107.43 260.857 107.513 260.554 107.513 260.236V259.162C107.463 259.222 107.354 259.276 107.185 259.326C107.019 259.372 106.827 259.414 106.608 259.45C106.393 259.483 106.182 259.513 105.977 259.54C105.775 259.563 105.61 259.583 105.485 259.599C105.18 259.639 104.895 259.704 104.629 259.793C104.368 259.879 104.155 260.01 103.993 260.186C103.834 260.358 103.754 260.594 103.754 260.892C103.754 261.3 103.905 261.608 104.207 261.817C104.512 262.022 104.898 262.125 105.365 262.125ZM117.868 263.159C117.152 263.159 116.535 262.99 116.018 262.652C115.501 262.314 115.103 261.848 114.825 261.255C114.547 260.662 114.407 259.984 114.407 259.222C114.407 258.446 114.55 257.762 114.835 257.168C115.123 256.572 115.524 256.106 116.038 255.771C116.555 255.433 117.158 255.264 117.848 255.264C118.385 255.264 118.868 255.364 119.299 255.562C119.73 255.761 120.083 256.04 120.358 256.398C120.633 256.756 120.804 257.173 120.87 257.651H119.697C119.608 257.303 119.409 256.994 119.1 256.726C118.796 256.454 118.385 256.318 117.868 256.318C117.41 256.318 117.009 256.437 116.664 256.676C116.323 256.911 116.056 257.245 115.864 257.675C115.675 258.103 115.581 258.605 115.581 259.182C115.581 259.772 115.673 260.286 115.859 260.723C116.048 261.161 116.313 261.5 116.654 261.742C116.999 261.984 117.404 262.105 117.868 262.105C118.172 262.105 118.449 262.052 118.698 261.946C118.946 261.84 119.157 261.688 119.329 261.489C119.502 261.29 119.624 261.051 119.697 260.773H120.87C120.804 261.223 120.64 261.629 120.378 261.991C120.12 262.349 119.777 262.634 119.349 262.846C118.925 263.055 118.431 263.159 117.868 263.159ZM125.688 263.159C124.998 263.159 124.394 262.995 123.873 262.667C123.356 262.339 122.952 261.88 122.66 261.29C122.372 260.7 122.228 260.01 122.228 259.222C122.228 258.426 122.372 257.732 122.66 257.138C122.952 256.545 123.356 256.085 123.873 255.756C124.394 255.428 124.998 255.264 125.688 255.264C126.377 255.264 126.98 255.428 127.498 255.756C128.018 256.085 128.422 256.545 128.711 257.138C129.002 257.732 129.148 258.426 129.148 259.222C129.148 260.01 129.002 260.7 128.711 261.29C128.422 261.88 128.018 262.339 127.498 262.667C126.98 262.995 126.377 263.159 125.688 263.159ZM125.688 262.105C126.212 262.105 126.642 261.971 126.98 261.702C127.319 261.434 127.569 261.081 127.731 260.643C127.894 260.206 127.975 259.732 127.975 259.222C127.975 258.711 127.894 258.236 127.731 257.795C127.569 257.354 127.319 256.998 126.98 256.726C126.642 256.454 126.212 256.318 125.688 256.318C125.164 256.318 124.733 256.454 124.395 256.726C124.057 256.998 123.807 257.354 123.645 257.795C123.482 258.236 123.401 258.711 123.401 259.222C123.401 259.732 123.482 260.206 123.645 260.643C123.807 261.081 124.057 261.434 124.395 261.702C124.733 261.971 125.164 262.105 125.688 262.105ZM136.91 255.364L134.086 263H132.893L130.069 255.364H131.342L133.45 261.449H133.529L135.637 255.364H136.91ZM141.387 263.159C140.651 263.159 140.016 262.997 139.483 262.672C138.952 262.344 138.543 261.886 138.255 261.3C137.97 260.71 137.827 260.024 137.827 259.241C137.827 258.459 137.97 257.77 138.255 257.173C138.543 256.573 138.944 256.106 139.458 255.771C139.975 255.433 140.578 255.264 141.268 255.264C141.665 255.264 142.058 255.33 142.446 255.463C142.834 255.596 143.187 255.811 143.505 256.109C143.823 256.404 144.077 256.795 144.265 257.283C144.454 257.77 144.549 258.37 144.549 259.082V259.58H138.662V258.565H143.356C143.356 258.134 143.269 257.75 143.097 257.412C142.928 257.074 142.686 256.807 142.371 256.612C142.06 256.416 141.692 256.318 141.268 256.318C140.8 256.318 140.396 256.434 140.055 256.666C139.716 256.895 139.456 257.193 139.274 257.561C139.092 257.929 139.001 258.323 139.001 258.744V259.42C139.001 259.997 139.1 260.486 139.299 260.887C139.501 261.285 139.781 261.588 140.139 261.797C140.497 262.002 140.913 262.105 141.387 262.105C141.695 262.105 141.974 262.062 142.222 261.976C142.474 261.886 142.691 261.754 142.873 261.578C143.056 261.399 143.197 261.177 143.296 260.912L144.43 261.23C144.31 261.615 144.11 261.953 143.828 262.244C143.546 262.533 143.198 262.758 142.784 262.92C142.37 263.08 141.904 263.159 141.387 263.159ZM146.334 263V255.364H147.467V256.517H147.547C147.686 256.139 147.938 255.833 148.302 255.597C148.667 255.362 149.078 255.244 149.535 255.244C149.622 255.244 149.729 255.246 149.858 255.249C149.988 255.253 150.086 255.258 150.152 255.264V256.457C150.112 256.447 150.021 256.433 149.878 256.413C149.739 256.389 149.592 256.378 149.436 256.378C149.065 256.378 148.733 256.456 148.442 256.612C148.153 256.764 147.925 256.976 147.756 257.248C147.59 257.516 147.507 257.823 147.507 258.168V263H146.334ZM155.48 263V255.364H156.653V263H155.48ZM156.077 254.091C155.848 254.091 155.651 254.013 155.485 253.857C155.323 253.701 155.241 253.514 155.241 253.295C155.241 253.077 155.323 252.889 155.485 252.734C155.651 252.578 155.848 252.5 156.077 252.5C156.305 252.5 156.501 252.578 156.663 252.734C156.829 252.889 156.912 253.077 156.912 253.295C156.912 253.514 156.829 253.701 156.663 253.857C156.501 254.013 156.305 254.091 156.077 254.091ZM158.802 263V255.364H159.936V256.557H160.035C160.194 256.149 160.451 255.833 160.806 255.607C161.161 255.379 161.586 255.264 162.084 255.264C162.587 255.264 163.007 255.379 163.341 255.607C163.68 255.833 163.943 256.149 164.132 256.557H164.211C164.407 256.162 164.7 255.849 165.091 255.617C165.483 255.382 165.952 255.264 166.498 255.264C167.181 255.264 167.74 255.478 168.174 255.906C168.608 256.33 168.825 256.991 168.825 257.889V263H167.652V257.889C167.652 257.326 167.498 256.923 167.189 256.681C166.881 256.439 166.518 256.318 166.101 256.318C165.564 256.318 165.148 256.481 164.853 256.805C164.558 257.127 164.41 257.535 164.41 258.028V263H163.217V257.77C163.217 257.336 163.076 256.986 162.795 256.721C162.513 256.452 162.15 256.318 161.706 256.318C161.401 256.318 161.116 256.399 160.851 256.562C160.589 256.724 160.377 256.95 160.214 257.238C160.055 257.523 159.976 257.853 159.976 258.227V263H158.802ZM173.218 263.179C172.734 263.179 172.294 263.088 171.9 262.906C171.506 262.72 171.192 262.453 170.96 262.105C170.728 261.754 170.612 261.33 170.612 260.832C170.612 260.395 170.699 260.04 170.871 259.768C171.043 259.493 171.274 259.278 171.562 259.122C171.85 258.966 172.169 258.85 172.517 258.774C172.868 258.695 173.221 258.632 173.575 258.585C174.039 258.526 174.416 258.481 174.704 258.451C174.996 258.418 175.208 258.363 175.34 258.287C175.476 258.211 175.544 258.078 175.544 257.889V257.849C175.544 257.359 175.41 256.978 175.142 256.706C174.876 256.434 174.474 256.298 173.933 256.298C173.373 256.298 172.934 256.421 172.616 256.666C172.298 256.911 172.074 257.173 171.945 257.452L170.831 257.054C171.03 256.59 171.295 256.229 171.627 255.97C171.961 255.708 172.326 255.526 172.72 255.423C173.118 255.317 173.509 255.264 173.894 255.264C174.139 255.264 174.421 255.294 174.739 255.354C175.06 255.41 175.37 255.528 175.669 255.707C175.97 255.886 176.22 256.156 176.419 256.517C176.618 256.878 176.718 257.362 176.718 257.969V263H175.544V261.966H175.485C175.405 262.132 175.272 262.309 175.087 262.498C174.901 262.687 174.654 262.848 174.346 262.98C174.038 263.113 173.662 263.179 173.218 263.179ZM173.396 262.125C173.86 262.125 174.252 262.034 174.57 261.852C174.891 261.669 175.133 261.434 175.296 261.146C175.461 260.857 175.544 260.554 175.544 260.236V259.162C175.494 259.222 175.385 259.276 175.216 259.326C175.05 259.372 174.858 259.414 174.639 259.45C174.424 259.483 174.213 259.513 174.008 259.54C173.806 259.563 173.642 259.583 173.516 259.599C173.211 259.639 172.926 259.704 172.661 259.793C172.399 259.879 172.187 260.01 172.024 260.186C171.865 260.358 171.786 260.594 171.786 260.892C171.786 261.3 171.936 261.608 172.238 261.817C172.543 262.022 172.929 262.125 173.396 262.125ZM181.941 266.023C181.375 266.023 180.887 265.95 180.48 265.804C180.072 265.661 179.732 265.473 179.461 265.237C179.192 265.005 178.978 264.757 178.819 264.491L179.754 263.835C179.86 263.974 179.994 264.134 180.157 264.312C180.319 264.495 180.541 264.652 180.823 264.785C181.108 264.921 181.481 264.989 181.941 264.989C182.558 264.989 183.067 264.839 183.468 264.541C183.869 264.243 184.069 263.776 184.069 263.139V261.588H183.97C183.884 261.727 183.761 261.9 183.602 262.105C183.446 262.307 183.221 262.488 182.926 262.647C182.634 262.803 182.24 262.881 181.743 262.881C181.126 262.881 180.573 262.735 180.082 262.443C179.595 262.152 179.209 261.727 178.924 261.17C178.642 260.614 178.501 259.937 178.501 259.142C178.501 258.36 178.639 257.679 178.914 257.099C179.189 256.515 179.572 256.065 180.062 255.746C180.553 255.425 181.119 255.264 181.762 255.264C182.26 255.264 182.654 255.347 182.946 255.513C183.241 255.675 183.466 255.861 183.622 256.07C183.781 256.275 183.904 256.444 183.99 256.577H184.109V255.364H185.243V263.219C185.243 263.875 185.093 264.409 184.795 264.82C184.5 265.234 184.102 265.537 183.602 265.729C183.105 265.925 182.551 266.023 181.941 266.023ZM181.902 261.827C182.372 261.827 182.77 261.719 183.095 261.504C183.42 261.288 183.667 260.978 183.836 260.574C184.005 260.17 184.089 259.686 184.089 259.122C184.089 258.572 184.006 258.086 183.841 257.665C183.675 257.245 183.43 256.915 183.105 256.676C182.78 256.437 182.379 256.318 181.902 256.318C181.404 256.318 180.99 256.444 180.659 256.696C180.331 256.948 180.084 257.286 179.918 257.71C179.756 258.134 179.674 258.605 179.674 259.122C179.674 259.652 179.757 260.121 179.923 260.529C180.092 260.933 180.341 261.252 180.669 261.484C181 261.712 181.411 261.827 181.902 261.827ZM190.592 263.159C189.856 263.159 189.221 262.997 188.688 262.672C188.158 262.344 187.748 261.886 187.46 261.3C187.175 260.71 187.032 260.024 187.032 259.241C187.032 258.459 187.175 257.77 187.46 257.173C187.748 256.573 188.149 256.106 188.663 255.771C189.18 255.433 189.783 255.264 190.473 255.264C190.87 255.264 191.263 255.33 191.651 255.463C192.039 255.596 192.392 255.811 192.71 256.109C193.028 256.404 193.282 256.795 193.471 257.283C193.659 257.77 193.754 258.37 193.754 259.082V259.58H187.868V258.565H192.561C192.561 258.134 192.475 257.75 192.302 257.412C192.133 257.074 191.891 256.807 191.576 256.612C191.265 256.416 190.897 256.318 190.473 256.318C190.005 256.318 189.601 256.434 189.26 256.666C188.922 256.895 188.661 257.193 188.479 257.561C188.297 257.929 188.206 258.323 188.206 258.744V259.42C188.206 259.997 188.305 260.486 188.504 260.887C188.706 261.285 188.986 261.588 189.344 261.797C189.702 262.002 190.118 262.105 190.592 262.105C190.9 262.105 191.179 262.062 191.427 261.976C191.679 261.886 191.896 261.754 192.078 261.578C192.261 261.399 192.402 261.177 192.501 260.912L193.635 261.23C193.515 261.615 193.315 261.953 193.033 262.244C192.751 262.533 192.403 262.758 191.989 262.92C191.575 263.08 191.109 263.159 190.592 263.159ZM202.877 255.364V256.358H198.76V255.364H202.877ZM199.993 263V254.31C199.993 253.872 200.096 253.508 200.301 253.216C200.507 252.924 200.774 252.705 201.102 252.56C201.43 252.414 201.776 252.341 202.141 252.341C202.429 252.341 202.665 252.364 202.847 252.411C203.029 252.457 203.165 252.5 203.255 252.54L202.917 253.554C202.857 253.534 202.774 253.509 202.668 253.479C202.565 253.45 202.429 253.435 202.26 253.435C201.873 253.435 201.592 253.532 201.42 253.728C201.251 253.924 201.167 254.21 201.167 254.588V263H199.993ZM207.309 263.159C206.62 263.159 206.015 262.995 205.494 262.667C204.977 262.339 204.573 261.88 204.281 261.29C203.993 260.7 203.849 260.01 203.849 259.222C203.849 258.426 203.993 257.732 204.281 257.138C204.573 256.545 204.977 256.085 205.494 255.756C206.015 255.428 206.62 255.264 207.309 255.264C207.998 255.264 208.602 255.428 209.119 255.756C209.639 256.085 210.043 256.545 210.332 257.138C210.623 257.732 210.769 258.426 210.769 259.222C210.769 260.01 210.623 260.7 210.332 261.29C210.043 261.88 209.639 262.339 209.119 262.667C208.602 262.995 207.998 263.159 207.309 263.159ZM207.309 262.105C207.833 262.105 208.263 261.971 208.602 261.702C208.94 261.434 209.19 261.081 209.352 260.643C209.515 260.206 209.596 259.732 209.596 259.222C209.596 258.711 209.515 258.236 209.352 257.795C209.19 257.354 208.94 256.998 208.602 256.726C208.263 256.454 207.833 256.318 207.309 256.318C206.785 256.318 206.354 256.454 206.016 256.726C205.678 256.998 205.428 257.354 205.266 257.795C205.103 258.236 205.022 258.711 205.022 259.222C205.022 259.732 205.103 260.206 205.266 260.643C205.428 261.081 205.678 261.434 206.016 261.702C206.354 261.971 206.785 262.105 207.309 262.105ZM212.56 263V255.364H213.694V256.517H213.773C213.912 256.139 214.164 255.833 214.529 255.597C214.894 255.362 215.305 255.244 215.762 255.244C215.848 255.244 215.956 255.246 216.085 255.249C216.214 255.253 216.312 255.258 216.378 255.264V256.457C216.339 256.447 216.247 256.433 216.105 256.413C215.966 256.389 215.818 256.378 215.662 256.378C215.291 256.378 214.96 256.456 214.668 256.612C214.38 256.764 214.151 256.976 213.982 257.248C213.816 257.516 213.733 257.823 213.733 258.168V263H212.56ZM222.462 265.864C222.263 265.864 222.086 265.847 221.93 265.814C221.775 265.784 221.667 265.754 221.607 265.724L221.906 264.69C222.191 264.763 222.442 264.79 222.661 264.77C222.88 264.75 223.074 264.652 223.243 264.477C223.415 264.304 223.573 264.024 223.715 263.636L223.934 263.04L221.11 255.364H222.383L224.491 261.449H224.57L226.678 255.364H227.951L224.71 264.114C224.564 264.508 224.383 264.835 224.168 265.093C223.952 265.355 223.702 265.549 223.417 265.675C223.135 265.801 222.817 265.864 222.462 265.864ZM232.328 263.159C231.639 263.159 231.034 262.995 230.514 262.667C229.997 262.339 229.592 261.88 229.301 261.29C229.012 260.7 228.868 260.01 228.868 259.222C228.868 258.426 229.012 257.732 229.301 257.138C229.592 256.545 229.997 256.085 230.514 255.756C231.034 255.428 231.639 255.264 232.328 255.264C233.018 255.264 233.621 255.428 234.138 255.756C234.658 256.085 235.063 256.545 235.351 257.138C235.643 257.732 235.789 258.426 235.789 259.222C235.789 260.01 235.643 260.7 235.351 261.29C235.063 261.88 234.658 262.339 234.138 262.667C233.621 262.995 233.018 263.159 232.328 263.159ZM232.328 262.105C232.852 262.105 233.283 261.971 233.621 261.702C233.959 261.434 234.209 261.081 234.372 260.643C234.534 260.206 234.615 259.732 234.615 259.222C234.615 258.711 234.534 258.236 234.372 257.795C234.209 257.354 233.959 256.998 233.621 256.726C233.283 256.454 232.852 256.318 232.328 256.318C231.805 256.318 231.374 256.454 231.036 256.726C230.698 256.998 230.448 257.354 230.285 257.795C230.123 258.236 230.042 258.711 230.042 259.222C230.042 259.732 230.123 260.206 230.285 260.643C230.448 261.081 230.698 261.434 231.036 261.702C231.374 261.971 231.805 262.105 232.328 262.105ZM242.392 259.878V255.364H243.566V263H242.392V261.707H242.313C242.134 262.095 241.855 262.425 241.477 262.697C241.1 262.965 240.622 263.099 240.046 263.099C239.568 263.099 239.144 262.995 238.773 262.786C238.402 262.574 238.11 262.256 237.898 261.832C237.686 261.404 237.58 260.866 237.58 260.216V255.364H238.753V260.136C238.753 260.693 238.909 261.137 239.22 261.469C239.535 261.8 239.936 261.966 240.423 261.966C240.715 261.966 241.012 261.891 241.313 261.742C241.618 261.593 241.874 261.364 242.079 261.056C242.288 260.748 242.392 260.355 242.392 259.878ZM245.714 263V255.364H246.848V256.517H246.928C247.067 256.139 247.319 255.833 247.683 255.597C248.048 255.362 248.459 255.244 248.916 255.244C249.002 255.244 249.11 255.246 249.239 255.249C249.369 255.253 249.466 255.258 249.533 255.264V256.457C249.493 256.447 249.402 256.433 249.259 256.413C249.12 256.389 248.973 256.378 248.817 256.378C248.446 256.378 248.114 256.456 247.822 256.612C247.534 256.764 247.305 256.976 247.136 257.248C246.971 257.516 246.888 257.823 246.888 258.168V263H245.714ZM254.861 265.864V255.364H255.994V256.577H256.134C256.22 256.444 256.339 256.275 256.492 256.07C256.647 255.861 256.869 255.675 257.158 255.513C257.45 255.347 257.844 255.264 258.341 255.264C258.984 255.264 259.551 255.425 260.041 255.746C260.532 256.068 260.915 256.524 261.19 257.114C261.465 257.704 261.602 258.4 261.602 259.202C261.602 260.01 261.465 260.711 261.19 261.305C260.915 261.895 260.534 262.352 260.046 262.677C259.559 262.998 258.997 263.159 258.361 263.159C257.87 263.159 257.478 263.078 257.183 262.915C256.888 262.75 256.661 262.562 256.502 262.354C256.343 262.142 256.22 261.966 256.134 261.827H256.034V265.864H254.861ZM256.014 259.182C256.014 259.759 256.099 260.267 256.268 260.708C256.437 261.146 256.684 261.489 257.009 261.737C257.334 261.982 257.731 262.105 258.202 262.105C258.692 262.105 259.102 261.976 259.43 261.717C259.761 261.455 260.01 261.104 260.176 260.663C260.345 260.219 260.429 259.725 260.429 259.182C260.429 258.645 260.346 258.161 260.181 257.73C260.018 257.296 259.771 256.953 259.44 256.701C259.112 256.446 258.699 256.318 258.202 256.318C257.725 256.318 257.324 256.439 256.999 256.681C256.674 256.92 256.429 257.254 256.263 257.685C256.097 258.113 256.014 258.612 256.014 259.182ZM263.392 263V255.364H264.526V256.517H264.605C264.744 256.139 264.996 255.833 265.361 255.597C265.726 255.362 266.137 255.244 266.594 255.244C266.68 255.244 266.788 255.246 266.917 255.249C267.046 255.253 267.144 255.258 267.21 255.264V256.457C267.171 256.447 267.079 256.433 266.937 256.413C266.798 256.389 266.65 256.378 266.494 256.378C266.123 256.378 265.792 256.456 265.5 256.612C265.212 256.764 264.983 256.976 264.814 257.248C264.648 257.516 264.566 257.823 264.566 258.168V263H263.392ZM271.471 263.159C270.782 263.159 270.177 262.995 269.656 262.667C269.139 262.339 268.735 261.88 268.443 261.29C268.155 260.7 268.011 260.01 268.011 259.222C268.011 258.426 268.155 257.732 268.443 257.138C268.735 256.545 269.139 256.085 269.656 255.756C270.177 255.428 270.782 255.264 271.471 255.264C272.16 255.264 272.764 255.428 273.281 255.756C273.801 256.085 274.205 256.545 274.494 257.138C274.785 257.732 274.931 258.426 274.931 259.222C274.931 260.01 274.785 260.7 274.494 261.29C274.205 261.88 273.801 262.339 273.281 262.667C272.764 262.995 272.16 263.159 271.471 263.159ZM271.471 262.105C271.995 262.105 272.426 261.971 272.764 261.702C273.102 261.434 273.352 261.081 273.514 260.643C273.677 260.206 273.758 259.732 273.758 259.222C273.758 258.711 273.677 258.236 273.514 257.795C273.352 257.354 273.102 256.998 272.764 256.726C272.426 256.454 271.995 256.318 271.471 256.318C270.947 256.318 270.517 256.454 270.178 256.726C269.84 256.998 269.59 257.354 269.428 257.795C269.265 258.236 269.184 258.711 269.184 259.222C269.184 259.732 269.265 260.206 269.428 260.643C269.59 261.081 269.84 261.434 270.178 261.702C270.517 261.971 270.947 262.105 271.471 262.105ZM279.606 263.159C278.969 263.159 278.408 262.998 277.92 262.677C277.433 262.352 277.052 261.895 276.777 261.305C276.502 260.711 276.364 260.01 276.364 259.202C276.364 258.4 276.502 257.704 276.777 257.114C277.052 256.524 277.435 256.068 277.925 255.746C278.416 255.425 278.983 255.264 279.626 255.264C280.123 255.264 280.516 255.347 280.804 255.513C281.096 255.675 281.318 255.861 281.47 256.07C281.626 256.275 281.747 256.444 281.833 256.577H281.933V252.818H283.106V263H281.972V261.827H281.833C281.747 261.966 281.624 262.142 281.465 262.354C281.306 262.562 281.079 262.75 280.784 262.915C280.489 263.078 280.096 263.159 279.606 263.159ZM279.765 262.105C280.236 262.105 280.633 261.982 280.958 261.737C281.283 261.489 281.53 261.146 281.699 260.708C281.868 260.267 281.952 259.759 281.952 259.182C281.952 258.612 281.87 258.113 281.704 257.685C281.538 257.254 281.293 256.92 280.968 256.681C280.643 256.439 280.242 256.318 279.765 256.318C279.268 256.318 278.853 256.446 278.522 256.701C278.194 256.953 277.947 257.296 277.781 257.73C277.619 258.161 277.538 258.645 277.538 259.182C277.538 259.725 277.621 260.219 277.786 260.663C277.955 261.104 278.204 261.455 278.532 261.717C278.863 261.976 279.274 262.105 279.765 262.105ZM290.23 259.878V255.364H291.403V263H290.23V261.707H290.151C289.972 262.095 289.693 262.425 289.315 262.697C288.938 262.965 288.46 263.099 287.884 263.099C287.406 263.099 286.982 262.995 286.611 262.786C286.24 262.574 285.948 262.256 285.736 261.832C285.524 261.404 285.418 260.866 285.418 260.216V255.364H286.591V260.136C286.591 260.693 286.747 261.137 287.058 261.469C287.373 261.8 287.774 261.966 288.261 261.966C288.553 261.966 288.85 261.891 289.151 261.742C289.456 261.593 289.711 261.364 289.917 261.056C290.126 260.748 290.23 260.355 290.23 259.878ZM296.655 263.159C295.939 263.159 295.322 262.99 294.805 262.652C294.288 262.314 293.89 261.848 293.612 261.255C293.334 260.662 293.194 259.984 293.194 259.222C293.194 258.446 293.337 257.762 293.622 257.168C293.91 256.572 294.311 256.106 294.825 255.771C295.342 255.433 295.945 255.264 296.635 255.264C297.172 255.264 297.656 255.364 298.086 255.562C298.517 255.761 298.87 256.04 299.145 256.398C299.421 256.756 299.591 257.173 299.657 257.651H298.484C298.395 257.303 298.196 256.994 297.888 256.726C297.583 256.454 297.172 256.318 296.655 256.318C296.197 256.318 295.796 256.437 295.452 256.676C295.11 256.911 294.843 257.245 294.651 257.675C294.462 258.103 294.368 258.605 294.368 259.182C294.368 259.772 294.461 260.286 294.646 260.723C294.835 261.161 295.1 261.5 295.442 261.742C295.786 261.984 296.191 262.105 296.655 262.105C296.96 262.105 297.236 262.052 297.485 261.946C297.733 261.84 297.944 261.688 298.116 261.489C298.289 261.29 298.411 261.051 298.484 260.773H299.657C299.591 261.223 299.427 261.629 299.165 261.991C298.907 262.349 298.564 262.634 298.136 262.846C297.712 263.055 297.218 263.159 296.655 263.159ZM304.694 255.364V256.358H300.736V255.364H304.694ZM301.89 253.534H303.063V260.812C303.063 261.144 303.111 261.393 303.207 261.558C303.307 261.721 303.433 261.83 303.585 261.886C303.741 261.939 303.905 261.966 304.077 261.966C304.206 261.966 304.313 261.959 304.395 261.946C304.478 261.929 304.545 261.916 304.594 261.906L304.833 262.96C304.753 262.99 304.642 263.02 304.5 263.05C304.357 263.083 304.177 263.099 303.958 263.099C303.626 263.099 303.302 263.028 302.983 262.886C302.669 262.743 302.407 262.526 302.198 262.234C301.992 261.943 301.89 261.575 301.89 261.131V253.534ZM307.314 263.08C307.068 263.08 306.858 262.992 306.682 262.816C306.507 262.64 306.419 262.43 306.419 262.185C306.419 261.939 306.507 261.729 306.682 261.553C306.858 261.378 307.068 261.29 307.314 261.29C307.559 261.29 307.769 261.378 307.945 261.553C308.121 261.729 308.209 261.939 308.209 262.185C308.209 262.347 308.167 262.496 308.084 262.632C308.005 262.768 307.897 262.877 307.761 262.96C307.629 263.04 307.479 263.08 307.314 263.08Z" fill="#8B8D97"/>
<path d="M25.9885 282V273.273H31.2214V274.21H27.0453V277.159H30.8294V278.097H27.0453V282H25.9885ZM32.8951 282V275.455H33.9007V282H32.8951ZM33.4064 274.364C33.2104 274.364 33.0414 274.297 32.8993 274.163C32.7601 274.03 32.6905 273.869 32.6905 273.682C32.6905 273.494 32.7601 273.334 32.8993 273.2C33.0414 273.067 33.2104 273 33.4064 273C33.6025 273 33.7701 273.067 33.9093 273.2C34.0513 273.334 34.1223 273.494 34.1223 273.682C34.1223 273.869 34.0513 274.03 33.9093 274.163C33.7701 274.297 33.6025 274.364 33.4064 274.364ZM36.7484 273.273V282H35.7427V273.273H36.7484ZM41.3347 282.136C40.704 282.136 40.16 281.997 39.7026 281.719C39.248 281.438 38.8972 281.045 38.65 280.543C38.4057 280.037 38.2836 279.449 38.2836 278.778C38.2836 278.108 38.4057 277.517 38.65 277.006C38.8972 276.491 39.2409 276.091 39.6813 275.804C40.1245 275.514 40.6415 275.369 41.2324 275.369C41.5733 275.369 41.91 275.426 42.2424 275.54C42.5748 275.653 42.8773 275.838 43.15 276.094C43.4228 276.347 43.6401 276.682 43.802 277.099C43.964 277.517 44.0449 278.031 44.0449 278.642V279.068H38.9995V278.199H43.0222C43.0222 277.83 42.9483 277.5 42.8006 277.21C42.6557 276.92 42.4483 276.692 42.1784 276.524C41.9114 276.357 41.5961 276.273 41.2324 276.273C40.8319 276.273 40.4853 276.372 40.1926 276.571C39.9029 276.767 39.6799 277.023 39.5236 277.338C39.3674 277.653 39.2892 277.991 39.2892 278.352V278.932C39.2892 279.426 39.3745 279.845 39.5449 280.189C39.7182 280.53 39.9583 280.79 40.2651 280.969C40.5719 281.145 40.9284 281.233 41.3347 281.233C41.5989 281.233 41.8375 281.196 42.0506 281.122C42.2665 281.045 42.4526 280.932 42.6088 280.781C42.7651 280.628 42.8858 280.437 42.9711 280.21L43.9426 280.483C43.8404 280.812 43.6685 281.102 43.427 281.352C43.1855 281.599 42.8873 281.793 42.5321 281.932C42.177 282.068 41.7779 282.136 41.3347 282.136ZM49.0861 282V273.273H54.3191V274.21H50.1429V277.159H53.927V278.097H50.1429V282H49.0861ZM58.1713 282.136C57.5804 282.136 57.062 281.996 56.6159 281.714C56.1728 281.433 55.8262 281.04 55.5762 280.534C55.329 280.028 55.2054 279.437 55.2054 278.761C55.2054 278.08 55.329 277.484 55.5762 276.976C55.8262 276.467 56.1728 276.072 56.6159 275.791C57.062 275.51 57.5804 275.369 58.1713 275.369C58.7623 275.369 59.2793 275.51 59.7225 275.791C60.1685 276.072 60.5151 276.467 60.7623 276.976C61.0123 277.484 61.1373 278.08 61.1373 278.761C61.1373 279.437 61.0123 280.028 60.7623 280.534C60.5151 281.04 60.1685 281.433 59.7225 281.714C59.2793 281.996 58.7623 282.136 58.1713 282.136ZM58.1713 281.233C58.6202 281.233 58.9895 281.118 59.2793 280.888C59.5691 280.658 59.7836 280.355 59.9228 279.98C60.062 279.605 60.1316 279.199 60.1316 278.761C60.1316 278.324 60.062 277.916 59.9228 277.538C59.7836 277.161 59.5691 276.855 59.2793 276.622C58.9895 276.389 58.6202 276.273 58.1713 276.273C57.7225 276.273 57.3532 276.389 57.0634 276.622C56.7736 276.855 56.5591 277.161 56.4199 277.538C56.2807 277.916 56.2111 278.324 56.2111 278.761C56.2111 279.199 56.2807 279.605 56.4199 279.98C56.5591 280.355 56.7736 280.658 57.0634 280.888C57.3532 281.118 57.7225 281.233 58.1713 281.233ZM62.6724 282V275.455H63.644V276.443H63.7122C63.8315 276.119 64.0474 275.857 64.3599 275.655C64.6724 275.453 65.0247 275.352 65.4167 275.352C65.4906 275.352 65.5829 275.354 65.6937 275.357C65.8045 275.359 65.8883 275.364 65.9451 275.369V276.392C65.911 276.384 65.8329 276.371 65.7108 276.354C65.5914 276.334 65.465 276.324 65.3315 276.324C65.0133 276.324 64.7292 276.391 64.4792 276.524C64.2321 276.655 64.036 276.837 63.8912 277.07C63.7491 277.3 63.6781 277.562 63.6781 277.858V282H62.6724ZM67.1373 282V275.455H68.1088V276.477H68.1941C68.3304 276.128 68.5506 275.857 68.8546 275.663C69.1586 275.467 69.5236 275.369 69.9498 275.369C70.3816 275.369 70.7409 275.467 71.0279 275.663C71.3176 275.857 71.5435 276.128 71.7054 276.477H71.7736C71.9412 276.139 72.1926 275.871 72.5279 275.672C72.8631 275.47 73.2651 275.369 73.7338 275.369C74.3191 275.369 74.7978 275.553 75.1699 275.919C75.5421 276.283 75.7282 276.849 75.7282 277.619V282H74.7225V277.619C74.7225 277.136 74.5904 276.791 74.3262 276.584C74.062 276.376 73.7509 276.273 73.3929 276.273C72.9327 276.273 72.5762 276.412 72.3233 276.69C72.0705 276.966 71.9441 277.315 71.9441 277.739V282H70.9213V277.517C70.9213 277.145 70.8006 276.845 70.5591 276.618C70.3176 276.388 70.0066 276.273 69.6259 276.273C69.3645 276.273 69.1202 276.342 68.8929 276.482C68.6685 276.621 68.4867 276.814 68.3475 277.061C68.2111 277.305 68.1429 277.588 68.1429 277.909V282H67.1373ZM79.4931 282.153C79.0783 282.153 78.7019 282.075 78.3638 281.919C78.0257 281.76 77.7573 281.531 77.5584 281.233C77.3596 280.932 77.2601 280.568 77.2601 280.142C77.2601 279.767 77.334 279.463 77.4817 279.23C77.6294 278.994 77.8269 278.81 78.074 278.676C78.3212 278.543 78.5939 278.443 78.8922 278.378C79.1934 278.31 79.4959 278.256 79.7999 278.216C80.1976 278.165 80.5201 278.126 80.7672 278.101C81.0172 278.072 81.199 278.026 81.3127 277.96C81.4292 277.895 81.4874 277.781 81.4874 277.619V277.585C81.4874 277.165 81.3723 276.838 81.1422 276.605C80.915 276.372 80.5698 276.256 80.1067 276.256C79.6266 276.256 79.2502 276.361 78.9775 276.571C78.7047 276.781 78.513 277.006 78.4022 277.244L77.4476 276.903C77.6181 276.506 77.8453 276.196 78.1294 275.974C78.4164 275.75 78.7289 275.594 79.0669 275.506C79.4078 275.415 79.7431 275.369 80.0726 275.369C80.2828 275.369 80.5243 275.395 80.7971 275.446C81.0726 275.494 81.3382 275.595 81.5939 275.749C81.8525 275.902 82.0669 276.134 82.2374 276.443C82.4078 276.753 82.4931 277.168 82.4931 277.688V282H81.4874V281.114H81.4363C81.3681 281.256 81.2544 281.408 81.0953 281.57C80.9363 281.732 80.7246 281.869 80.4604 281.983C80.1962 282.097 79.8738 282.153 79.4931 282.153ZM79.6465 281.25C80.0442 281.25 80.3794 281.172 80.6522 281.016C80.9277 280.859 81.1351 280.658 81.2743 280.411C81.4164 280.163 81.4874 279.903 81.4874 279.631V278.71C81.4448 278.761 81.351 278.808 81.2061 278.851C81.0641 278.891 80.8993 278.926 80.7118 278.957C80.5272 278.986 80.3468 279.011 80.1706 279.034C79.9973 279.054 79.8567 279.071 79.7488 279.085C79.4874 279.119 79.2431 279.175 79.0158 279.251C78.7914 279.325 78.6096 279.437 78.4703 279.588C78.334 279.736 78.2658 279.937 78.2658 280.193C78.2658 280.543 78.3951 280.807 78.6536 280.986C78.915 281.162 79.2459 281.25 79.6465 281.25ZM87.1752 275.455V276.307H83.7832V275.455H87.1752ZM84.7718 273.886H85.7775V280.125C85.7775 280.409 85.8187 280.622 85.9011 280.764C85.9863 280.903 86.0943 280.997 86.225 281.045C86.3585 281.091 86.4991 281.114 86.6468 281.114C86.7576 281.114 86.8485 281.108 86.9196 281.097C86.9906 281.082 87.0474 281.071 87.09 281.062L87.2946 281.966C87.2264 281.991 87.1312 282.017 87.0091 282.043C86.8869 282.071 86.7321 282.085 86.5446 282.085C86.2605 282.085 85.9821 282.024 85.7093 281.902C85.4395 281.78 85.215 281.594 85.036 281.344C84.8599 281.094 84.7718 280.778 84.7718 280.398V273.886ZM148.414 282V273.273H151.363C152.045 273.273 152.605 273.389 153.042 273.622C153.48 273.852 153.803 274.169 154.014 274.572C154.224 274.976 154.329 275.435 154.329 275.949C154.329 276.463 154.224 276.919 154.014 277.317C153.803 277.714 153.481 278.027 153.046 278.254C152.612 278.479 152.056 278.591 151.38 278.591H148.994V277.636H151.346C151.812 277.636 152.187 277.568 152.471 277.432C152.758 277.295 152.965 277.102 153.093 276.852C153.224 276.599 153.289 276.298 153.289 275.949C153.289 275.599 153.224 275.294 153.093 275.033C152.963 274.771 152.754 274.57 152.467 274.428C152.18 274.283 151.801 274.21 151.329 274.21H149.471V282H148.414ZM152.522 278.08L154.67 282H153.443L151.329 278.08H152.522ZM158.628 282.136C157.997 282.136 157.453 281.997 156.996 281.719C156.541 281.438 156.19 281.045 155.943 280.543C155.699 280.037 155.577 279.449 155.577 278.778C155.577 278.108 155.699 277.517 155.943 277.006C156.19 276.491 156.534 276.091 156.974 275.804C157.417 275.514 157.934 275.369 158.525 275.369C158.866 275.369 159.203 275.426 159.535 275.54C159.868 275.653 160.17 275.838 160.443 276.094C160.716 276.347 160.933 276.682 161.095 277.099C161.257 277.517 161.338 278.031 161.338 278.642V279.068H156.292V278.199H160.315C160.315 277.83 160.241 277.5 160.094 277.21C159.949 276.92 159.741 276.692 159.471 276.524C159.204 276.357 158.889 276.273 158.525 276.273C158.125 276.273 157.778 276.372 157.486 276.571C157.196 276.767 156.973 277.023 156.817 277.338C156.66 277.653 156.582 277.991 156.582 278.352V278.932C156.582 279.426 156.667 279.845 156.838 280.189C157.011 280.53 157.251 280.79 157.558 280.969C157.865 281.145 158.221 281.233 158.628 281.233C158.892 281.233 159.131 281.196 159.344 281.122C159.559 281.045 159.746 280.932 159.902 280.781C160.058 280.628 160.179 280.437 160.264 280.21L161.236 280.483C161.133 280.812 160.961 281.102 160.72 281.352C160.479 281.599 160.18 281.793 159.825 281.932C159.47 282.068 159.071 282.136 158.628 282.136ZM165.527 282.136C164.913 282.136 164.385 281.991 163.942 281.702C163.498 281.412 163.157 281.013 162.919 280.504C162.68 279.996 162.561 279.415 162.561 278.761C162.561 278.097 162.683 277.51 162.927 277.001C163.175 276.49 163.518 276.091 163.959 275.804C164.402 275.514 164.919 275.369 165.51 275.369C165.97 275.369 166.385 275.455 166.754 275.625C167.123 275.795 167.426 276.034 167.662 276.341C167.898 276.648 168.044 277.006 168.101 277.415H167.095C167.018 277.116 166.848 276.852 166.584 276.622C166.322 276.389 165.97 276.273 165.527 276.273C165.135 276.273 164.791 276.375 164.496 276.58C164.203 276.781 163.974 277.067 163.809 277.436C163.648 277.803 163.567 278.233 163.567 278.727C163.567 279.233 163.646 279.673 163.805 280.048C163.967 280.423 164.194 280.714 164.487 280.922C164.782 281.129 165.129 281.233 165.527 281.233C165.788 281.233 166.025 281.188 166.238 281.097C166.452 281.006 166.632 280.875 166.78 280.705C166.927 280.534 167.032 280.33 167.095 280.091H168.101C168.044 280.477 167.903 280.825 167.679 281.135C167.457 281.442 167.163 281.686 166.797 281.868C166.433 282.047 166.01 282.136 165.527 282.136ZM172.23 282.136C171.639 282.136 171.121 281.996 170.675 281.714C170.231 281.433 169.885 281.04 169.635 280.534C169.388 280.028 169.264 279.437 169.264 278.761C169.264 278.08 169.388 277.484 169.635 276.976C169.885 276.467 170.231 276.072 170.675 275.791C171.121 275.51 171.639 275.369 172.23 275.369C172.821 275.369 173.338 275.51 173.781 275.791C174.227 276.072 174.574 276.467 174.821 276.976C175.071 277.484 175.196 278.08 175.196 278.761C175.196 279.437 175.071 280.028 174.821 280.534C174.574 281.04 174.227 281.433 173.781 281.714C173.338 281.996 172.821 282.136 172.23 282.136ZM172.23 281.233C172.679 281.233 173.048 281.118 173.338 280.888C173.628 280.658 173.842 280.355 173.981 279.98C174.121 279.605 174.19 279.199 174.19 278.761C174.19 278.324 174.121 277.916 173.981 277.538C173.842 277.161 173.628 276.855 173.338 276.622C173.048 276.389 172.679 276.273 172.23 276.273C171.781 276.273 171.412 276.389 171.122 276.622C170.832 276.855 170.618 277.161 170.479 277.538C170.339 277.916 170.27 278.324 170.27 278.761C170.27 279.199 170.339 279.605 170.479 279.98C170.618 280.355 170.832 280.658 171.122 280.888C171.412 281.118 171.781 281.233 172.23 281.233ZM176.731 282V275.455H177.703V276.477H177.788C177.924 276.128 178.144 275.857 178.448 275.663C178.752 275.467 179.117 275.369 179.544 275.369C179.975 275.369 180.335 275.467 180.622 275.663C180.911 275.857 181.137 276.128 181.299 276.477H181.367C181.535 276.139 181.786 275.871 182.122 275.672C182.457 275.47 182.859 275.369 183.328 275.369C183.913 275.369 184.392 275.553 184.764 275.919C185.136 276.283 185.322 276.849 185.322 277.619V282H184.316V277.619C184.316 277.136 184.184 276.791 183.92 276.584C183.656 276.376 183.345 276.273 182.987 276.273C182.526 276.273 182.17 276.412 181.917 276.69C181.664 276.966 181.538 277.315 181.538 277.739V282H180.515V277.517C180.515 277.145 180.394 276.845 180.153 276.618C179.911 276.388 179.6 276.273 179.22 276.273C178.958 276.273 178.714 276.342 178.487 276.482C178.262 276.621 178.08 276.814 177.941 277.061C177.805 277.305 177.737 277.588 177.737 277.909V282H176.731ZM187.161 282V275.455H188.132V276.477H188.218C188.354 276.128 188.574 275.857 188.878 275.663C189.182 275.467 189.547 275.369 189.973 275.369C190.405 275.369 190.764 275.467 191.051 275.663C191.341 275.857 191.567 276.128 191.729 276.477H191.797C191.965 276.139 192.216 275.871 192.551 275.672C192.887 275.47 193.289 275.369 193.757 275.369C194.343 275.369 194.821 275.553 195.193 275.919C195.566 276.283 195.752 276.849 195.752 277.619V282H194.746V277.619C194.746 277.136 194.614 276.791 194.35 276.584C194.085 276.376 193.774 276.273 193.416 276.273C192.956 276.273 192.6 276.412 192.347 276.69C192.094 276.966 191.968 277.315 191.968 277.739V282H190.945V277.517C190.945 277.145 190.824 276.845 190.583 276.618C190.341 276.388 190.03 276.273 189.649 276.273C189.388 276.273 189.144 276.342 188.916 276.482C188.692 276.621 188.51 276.814 188.371 277.061C188.235 277.305 188.166 277.588 188.166 277.909V282H187.161ZM200.335 282.136C199.704 282.136 199.16 281.997 198.703 281.719C198.248 281.438 197.897 281.045 197.65 280.543C197.406 280.037 197.284 279.449 197.284 278.778C197.284 278.108 197.406 277.517 197.65 277.006C197.897 276.491 198.241 276.091 198.681 275.804C199.124 275.514 199.642 275.369 200.232 275.369C200.573 275.369 200.91 275.426 201.242 275.54C201.575 275.653 201.877 275.838 202.15 276.094C202.423 276.347 202.64 276.682 202.802 277.099C202.964 277.517 203.045 278.031 203.045 278.642V279.068H197.999V278.199H202.022C202.022 277.83 201.948 277.5 201.801 277.21C201.656 276.92 201.448 276.692 201.178 276.524C200.911 276.357 200.596 276.273 200.232 276.273C199.832 276.273 199.485 276.372 199.193 276.571C198.903 276.767 198.68 277.023 198.524 277.338C198.367 277.653 198.289 277.991 198.289 278.352V278.932C198.289 279.426 198.374 279.845 198.545 280.189C198.718 280.53 198.958 280.79 199.265 280.969C199.572 281.145 199.928 281.233 200.335 281.233C200.599 281.233 200.838 281.196 201.051 281.122C201.267 281.045 201.453 280.932 201.609 280.781C201.765 280.628 201.886 280.437 201.971 280.21L202.943 280.483C202.84 280.812 202.669 281.102 202.427 281.352C202.186 281.599 201.887 281.793 201.532 281.932C201.177 282.068 200.778 282.136 200.335 282.136ZM205.58 278.062V282H204.575V275.455H205.546V276.477H205.632C205.785 276.145 206.018 275.878 206.33 275.676C206.643 275.472 207.046 275.369 207.541 275.369C207.984 275.369 208.372 275.46 208.704 275.642C209.036 275.821 209.295 276.094 209.48 276.46C209.664 276.824 209.757 277.284 209.757 277.841V282H208.751V277.909C208.751 277.395 208.617 276.994 208.35 276.707C208.083 276.418 207.717 276.273 207.251 276.273C206.93 276.273 206.643 276.342 206.39 276.482C206.14 276.621 205.943 276.824 205.798 277.091C205.653 277.358 205.58 277.682 205.58 278.062ZM214.339 282.136C213.708 282.136 213.164 281.997 212.706 281.719C212.252 281.438 211.901 281.045 211.654 280.543C211.41 280.037 211.287 279.449 211.287 278.778C211.287 278.108 211.41 277.517 211.654 277.006C211.901 276.491 212.245 276.091 212.685 275.804C213.128 275.514 213.645 275.369 214.236 275.369C214.577 275.369 214.914 275.426 215.246 275.54C215.579 275.653 215.881 275.838 216.154 276.094C216.427 276.347 216.644 276.682 216.806 277.099C216.968 277.517 217.049 278.031 217.049 278.642V279.068H212.003V278.199H216.026C216.026 277.83 215.952 277.5 215.805 277.21C215.66 276.92 215.452 276.692 215.182 276.524C214.915 276.357 214.6 276.273 214.236 276.273C213.836 276.273 213.489 276.372 213.197 276.571C212.907 276.767 212.684 277.023 212.528 277.338C212.371 277.653 212.293 277.991 212.293 278.352V278.932C212.293 279.426 212.378 279.845 212.549 280.189C212.722 280.53 212.962 280.79 213.269 280.969C213.576 281.145 213.932 281.233 214.339 281.233C214.603 281.233 214.841 281.196 215.055 281.122C215.27 281.045 215.456 280.932 215.613 280.781C215.769 280.628 215.89 280.437 215.975 280.21L216.947 280.483C216.844 280.812 216.672 281.102 216.431 281.352C216.189 281.599 215.891 281.793 215.536 281.932C215.181 282.068 214.782 282.136 214.339 282.136ZM221.05 282.136C220.505 282.136 220.023 281.999 219.606 281.723C219.188 281.445 218.861 281.053 218.626 280.547C218.39 280.038 218.272 279.438 218.272 278.744C218.272 278.057 218.39 277.46 218.626 276.955C218.861 276.449 219.189 276.058 219.61 275.783C220.03 275.507 220.516 275.369 221.067 275.369C221.493 275.369 221.83 275.44 222.077 275.582C222.327 275.722 222.518 275.881 222.648 276.06C222.782 276.236 222.885 276.381 222.959 276.494H223.045V273.273H224.05V282H223.079V280.994H222.959C222.885 281.114 222.78 281.264 222.644 281.446C222.508 281.625 222.313 281.786 222.06 281.928C221.807 282.067 221.471 282.136 221.05 282.136ZM221.187 281.233C221.59 281.233 221.931 281.128 222.209 280.918C222.488 280.705 222.699 280.411 222.844 280.036C222.989 279.658 223.062 279.222 223.062 278.727C223.062 278.239 222.991 277.811 222.849 277.445C222.706 277.075 222.496 276.788 222.218 276.584C221.939 276.376 221.596 276.273 221.187 276.273C220.76 276.273 220.405 276.382 220.121 276.601C219.84 276.817 219.628 277.111 219.486 277.483C219.347 277.852 219.278 278.267 219.278 278.727C219.278 279.193 219.349 279.616 219.491 279.997C219.635 280.375 219.849 280.676 220.13 280.901C220.414 281.122 220.766 281.233 221.187 281.233ZM234.316 275.455C234.265 275.023 234.057 274.688 233.694 274.449C233.33 274.21 232.884 274.091 232.356 274.091C231.969 274.091 231.631 274.153 231.341 274.278C231.055 274.403 230.83 274.575 230.668 274.794C230.509 275.013 230.43 275.261 230.43 275.54C230.43 275.773 230.485 275.973 230.596 276.141C230.709 276.305 230.854 276.443 231.03 276.554C231.206 276.662 231.391 276.751 231.584 276.822C231.778 276.891 231.955 276.946 232.117 276.989L233.003 277.227C233.231 277.287 233.483 277.369 233.762 277.474C234.043 277.58 234.312 277.723 234.567 277.905C234.826 278.084 235.039 278.314 235.206 278.595C235.374 278.876 235.458 279.222 235.458 279.631C235.458 280.102 235.334 280.528 235.087 280.909C234.843 281.29 234.485 281.592 234.013 281.817C233.545 282.041 232.975 282.153 232.305 282.153C231.68 282.153 231.138 282.053 230.681 281.851C230.226 281.649 229.868 281.368 229.607 281.007C229.349 280.646 229.202 280.227 229.168 279.75H230.259C230.287 280.08 230.398 280.352 230.591 280.568C230.787 280.781 231.035 280.94 231.333 281.045C231.634 281.148 231.958 281.199 232.305 281.199C232.708 281.199 233.07 281.134 233.391 281.003C233.712 280.869 233.966 280.685 234.154 280.449C234.341 280.21 234.435 279.932 234.435 279.614C234.435 279.324 234.354 279.088 234.192 278.906C234.03 278.724 233.817 278.577 233.553 278.463C233.289 278.349 233.003 278.25 232.697 278.165L231.623 277.858C230.941 277.662 230.401 277.382 230.003 277.018C229.606 276.655 229.407 276.179 229.407 275.591C229.407 275.102 229.539 274.676 229.803 274.312C230.07 273.946 230.428 273.662 230.877 273.46C231.329 273.256 231.833 273.153 232.39 273.153C232.952 273.153 233.452 273.254 233.89 273.456C234.327 273.655 234.674 273.928 234.93 274.274C235.188 274.621 235.324 275.014 235.339 275.455H234.316ZM237.059 282V275.455H238.065V282H237.059ZM237.57 274.364C237.374 274.364 237.205 274.297 237.063 274.163C236.924 274.03 236.855 273.869 236.855 273.682C236.855 273.494 236.924 273.334 237.063 273.2C237.205 273.067 237.374 273 237.57 273C237.767 273 237.934 273.067 238.073 273.2C238.215 273.334 238.286 273.494 238.286 273.682C238.286 273.869 238.215 274.03 238.073 274.163C237.934 274.297 237.767 274.364 237.57 274.364ZM239.719 282V281.233L243.435 276.46V276.392H239.839V275.455H244.731V276.256L241.117 280.994V281.062H244.85V282H239.719ZM248.956 282.136C248.325 282.136 247.781 281.997 247.324 281.719C246.869 281.438 246.518 281.045 246.271 280.543C246.027 280.037 245.905 279.449 245.905 278.778C245.905 278.108 246.027 277.517 246.271 277.006C246.518 276.491 246.862 276.091 247.302 275.804C247.746 275.514 248.263 275.369 248.854 275.369C249.194 275.369 249.531 275.426 249.863 275.54C250.196 275.653 250.498 275.838 250.771 276.094C251.044 276.347 251.261 276.682 251.423 277.099C251.585 277.517 251.666 278.031 251.666 278.642V279.068H246.621V278.199H250.643C250.643 277.83 250.569 277.5 250.422 277.21C250.277 276.92 250.069 276.692 249.8 276.524C249.532 276.357 249.217 276.273 248.854 276.273C248.453 276.273 248.106 276.372 247.814 276.571C247.524 276.767 247.301 277.023 247.145 277.338C246.988 277.653 246.91 277.991 246.91 278.352V278.932C246.91 279.426 246.996 279.845 247.166 280.189C247.339 280.53 247.579 280.79 247.886 280.969C248.193 281.145 248.55 281.233 248.956 281.233C249.22 281.233 249.459 281.196 249.672 281.122C249.888 281.045 250.074 280.932 250.23 280.781C250.386 280.628 250.507 280.437 250.592 280.21L251.564 280.483C251.461 280.812 251.29 281.102 251.048 281.352C250.807 281.599 250.508 281.793 250.153 281.932C249.798 282.068 249.399 282.136 248.956 282.136Z" fill="#8B8D97"/>
<path d="M92.063 275.455H93.0687V282.477C93.0687 282.881 92.9991 283.23 92.8599 283.526C92.7235 283.821 92.5162 284.05 92.2377 284.212C91.9622 284.374 91.6142 284.455 91.1937 284.455C91.1596 284.455 91.1255 284.455 91.0914 284.455C91.0574 284.455 91.0233 284.455 90.9892 284.455V283.517C91.0233 283.517 91.0545 283.517 91.0829 283.517C91.1113 283.517 91.1426 283.517 91.1767 283.517C91.4835 283.517 91.7079 283.426 91.85 283.244C91.992 283.065 92.063 282.81 92.063 282.477V275.455ZM92.5574 274.364C92.3613 274.364 92.1923 274.297 92.0502 274.163C91.911 274.03 91.8414 273.869 91.8414 273.682C91.8414 273.494 91.911 273.334 92.0502 273.2C92.1923 273.067 92.3613 273 92.5574 273C92.7534 273 92.921 273.067 93.0602 273.2C93.2022 273.334 93.2733 273.494 93.2733 273.682C93.2733 273.869 93.2022 274.03 93.0602 274.163C92.921 274.297 92.7534 274.364 92.5574 274.364ZM94.9107 284.455V275.455H95.8823V276.494H96.0016C96.0755 276.381 96.1777 276.236 96.3084 276.06C96.4419 275.881 96.6323 275.722 96.8794 275.582C97.1294 275.44 97.4675 275.369 97.8936 275.369C98.4448 275.369 98.9306 275.507 99.351 275.783C99.7715 276.058 100.1 276.449 100.335 276.955C100.571 277.46 100.689 278.057 100.689 278.744C100.689 279.438 100.571 280.038 100.335 280.547C100.1 281.053 99.7729 281.445 99.3553 281.723C98.9377 281.999 98.4561 282.136 97.9107 282.136C97.4902 282.136 97.1536 282.067 96.9007 281.928C96.6479 281.786 96.4533 281.625 96.3169 281.446C96.1806 281.264 96.0755 281.114 96.0016 280.994H95.9164V284.455H94.9107ZM95.8993 278.727C95.8993 279.222 95.9718 279.658 96.1167 280.036C96.2615 280.411 96.4732 280.705 96.7516 280.918C97.03 281.128 97.3709 281.233 97.7743 281.233C98.1948 281.233 98.5456 281.122 98.8269 280.901C99.111 280.676 99.324 280.375 99.4661 279.997C99.611 279.616 99.6834 279.193 99.6834 278.727C99.6834 278.267 99.6124 277.852 99.4703 277.483C99.3311 277.111 99.1195 276.817 98.8354 276.601C98.5542 276.382 98.2005 276.273 97.7743 276.273C97.3652 276.273 97.0215 276.376 96.7431 276.584C96.4647 276.788 96.2544 277.075 96.1124 277.445C95.9703 277.811 95.8993 278.239 95.8993 278.727ZM104.968 282.136C104.337 282.136 103.793 281.997 103.335 281.719C102.881 281.438 102.53 281.045 102.283 280.543C102.039 280.037 101.916 279.449 101.916 278.778C101.916 278.108 102.039 277.517 102.283 277.006C102.53 276.491 102.874 276.091 103.314 275.804C103.757 275.514 104.274 275.369 104.865 275.369C105.206 275.369 105.543 275.426 105.875 275.54C106.208 275.653 106.51 275.838 106.783 276.094C107.056 276.347 107.273 276.682 107.435 277.099C107.597 277.517 107.678 278.031 107.678 278.642V279.068H102.632V278.199H106.655C106.655 277.83 106.581 277.5 106.433 277.21C106.289 276.92 106.081 276.692 105.811 276.524C105.544 276.357 105.229 276.273 104.865 276.273C104.465 276.273 104.118 276.372 103.825 276.571C103.536 276.767 103.313 277.023 103.156 277.338C103 277.653 102.922 277.991 102.922 278.352V278.932C102.922 279.426 103.007 279.845 103.178 280.189C103.351 280.53 103.591 280.79 103.898 280.969C104.205 281.145 104.561 281.233 104.968 281.233C105.232 281.233 105.47 281.196 105.683 281.122C105.899 281.045 106.085 280.932 106.242 280.781C106.398 280.628 106.519 280.437 106.604 280.21L107.575 280.483C107.473 280.812 107.301 281.102 107.06 281.352C106.818 281.599 106.52 281.793 106.165 281.932C105.81 282.068 105.411 282.136 104.968 282.136ZM111.85 284.591C111.364 284.591 110.946 284.528 110.597 284.403C110.247 284.281 109.956 284.119 109.723 283.918C109.493 283.719 109.31 283.506 109.173 283.278L109.975 282.716C110.066 282.835 110.181 282.972 110.32 283.125C110.459 283.281 110.649 283.416 110.891 283.53C111.135 283.646 111.455 283.705 111.85 283.705C112.378 283.705 112.814 283.577 113.158 283.321C113.502 283.065 113.673 282.665 113.673 282.119V280.79H113.588C113.514 280.909 113.409 281.057 113.273 281.233C113.139 281.406 112.946 281.561 112.693 281.697C112.443 281.831 112.105 281.898 111.679 281.898C111.151 281.898 110.676 281.773 110.256 281.523C109.838 281.273 109.507 280.909 109.263 280.432C109.021 279.955 108.901 279.375 108.901 278.693C108.901 278.023 109.019 277.439 109.254 276.942C109.49 276.442 109.818 276.055 110.239 275.783C110.659 275.507 111.145 275.369 111.696 275.369C112.122 275.369 112.46 275.44 112.71 275.582C112.963 275.722 113.156 275.881 113.29 276.06C113.426 276.236 113.531 276.381 113.605 276.494H113.708V275.455H114.679V282.188C114.679 282.75 114.551 283.207 114.296 283.56C114.043 283.915 113.702 284.175 113.273 284.339C112.847 284.507 112.372 284.591 111.85 284.591ZM111.816 280.994C112.219 280.994 112.56 280.902 112.838 280.717C113.117 280.533 113.328 280.267 113.473 279.92C113.618 279.574 113.691 279.159 113.691 278.676C113.691 278.205 113.619 277.788 113.477 277.428C113.335 277.067 113.125 276.784 112.847 276.58C112.568 276.375 112.225 276.273 111.816 276.273C111.389 276.273 111.034 276.381 110.75 276.597C110.469 276.812 110.257 277.102 110.115 277.466C109.976 277.83 109.906 278.233 109.906 278.676C109.906 279.131 109.977 279.533 110.119 279.882C110.264 280.229 110.477 280.501 110.759 280.7C111.043 280.896 111.395 280.994 111.816 280.994ZM118.02 280.807L117.952 281.267C117.904 281.591 117.83 281.938 117.73 282.307C117.634 282.676 117.533 283.024 117.428 283.351C117.323 283.678 117.236 283.938 117.168 284.131H116.401C116.438 283.949 116.486 283.709 116.546 283.411C116.605 283.112 116.665 282.778 116.725 282.409C116.787 282.043 116.838 281.668 116.878 281.284L116.929 280.807H118.02ZM123.258 284.455V275.455H124.23V276.494H124.349C124.423 276.381 124.525 276.236 124.656 276.06C124.79 275.881 124.98 275.722 125.227 275.582C125.477 275.44 125.815 275.369 126.241 275.369C126.792 275.369 127.278 275.507 127.699 275.783C128.119 276.058 128.447 276.449 128.683 276.955C128.919 277.46 129.037 278.057 129.037 278.744C129.037 279.438 128.919 280.038 128.683 280.547C128.447 281.053 128.121 281.445 127.703 281.723C127.285 281.999 126.804 282.136 126.258 282.136C125.838 282.136 125.501 282.067 125.248 281.928C124.996 281.786 124.801 281.625 124.665 281.446C124.528 281.264 124.423 281.114 124.349 280.994H124.264V284.455H123.258ZM124.247 278.727C124.247 279.222 124.319 279.658 124.464 280.036C124.609 280.411 124.821 280.705 125.099 280.918C125.378 281.128 125.719 281.233 126.122 281.233C126.542 281.233 126.893 281.122 127.175 280.901C127.459 280.676 127.672 280.375 127.814 279.997C127.959 279.616 128.031 279.193 128.031 278.727C128.031 278.267 127.96 277.852 127.818 277.483C127.679 277.111 127.467 276.817 127.183 276.601C126.902 276.382 126.548 276.273 126.122 276.273C125.713 276.273 125.369 276.376 125.091 276.584C124.812 276.788 124.602 277.075 124.46 277.445C124.318 277.811 124.247 278.239 124.247 278.727ZM131.577 278.062V282H130.571V275.455H131.542V276.477H131.628C131.781 276.145 132.014 275.878 132.327 275.676C132.639 275.472 133.042 275.369 133.537 275.369C133.98 275.369 134.368 275.46 134.7 275.642C135.032 275.821 135.291 276.094 135.476 276.46C135.66 276.824 135.753 277.284 135.753 277.841V282H134.747V277.909C134.747 277.395 134.613 276.994 134.346 276.707C134.079 276.418 133.713 276.273 133.247 276.273C132.926 276.273 132.639 276.342 132.386 276.482C132.136 276.621 131.939 276.824 131.794 277.091C131.649 277.358 131.577 277.682 131.577 278.062ZM140.232 284.591C139.747 284.591 139.329 284.528 138.98 284.403C138.63 284.281 138.339 284.119 138.106 283.918C137.876 283.719 137.693 283.506 137.556 283.278L138.357 282.716C138.448 282.835 138.563 282.972 138.703 283.125C138.842 283.281 139.032 283.416 139.274 283.53C139.518 283.646 139.838 283.705 140.232 283.705C140.761 283.705 141.197 283.577 141.541 283.321C141.884 283.065 142.056 282.665 142.056 282.119V280.79H141.971C141.897 280.909 141.792 281.057 141.656 281.233C141.522 281.406 141.329 281.561 141.076 281.697C140.826 281.831 140.488 281.898 140.062 281.898C139.534 281.898 139.059 281.773 138.639 281.523C138.221 281.273 137.89 280.909 137.646 280.432C137.404 279.955 137.284 279.375 137.284 278.693C137.284 278.023 137.401 277.439 137.637 276.942C137.873 276.442 138.201 276.055 138.622 275.783C139.042 275.507 139.528 275.369 140.079 275.369C140.505 275.369 140.843 275.44 141.093 275.582C141.346 275.722 141.539 275.881 141.673 276.06C141.809 276.236 141.914 276.381 141.988 276.494H142.09V275.455H143.062V282.188C143.062 282.75 142.934 283.207 142.678 283.56C142.426 283.915 142.085 284.175 141.656 284.339C141.23 284.507 140.755 284.591 140.232 284.591ZM140.198 280.994C140.602 280.994 140.943 280.902 141.221 280.717C141.499 280.533 141.711 280.267 141.856 279.92C142.001 279.574 142.073 279.159 142.073 278.676C142.073 278.205 142.002 277.788 141.86 277.428C141.718 277.067 141.508 276.784 141.23 276.58C140.951 276.375 140.607 276.273 140.198 276.273C139.772 276.273 139.417 276.381 139.133 276.597C138.852 276.812 138.64 277.102 138.498 277.466C138.359 277.83 138.289 278.233 138.289 278.676C138.289 279.131 138.36 279.533 138.502 279.882C138.647 280.229 138.86 280.501 139.142 280.7C139.426 280.896 139.778 280.994 140.198 280.994ZM259.452 282.119C259.094 282.114 258.736 282.045 258.378 281.915C258.02 281.784 257.693 281.564 257.398 281.254C257.102 280.942 256.865 280.52 256.686 279.989C256.507 279.455 256.417 278.784 256.417 277.977C256.417 277.205 256.49 276.52 256.635 275.923C256.78 275.324 256.99 274.82 257.265 274.411C257.541 273.999 257.873 273.686 258.263 273.473C258.655 273.26 259.096 273.153 259.588 273.153C260.077 273.153 260.511 273.251 260.892 273.447C261.275 273.641 261.588 273.911 261.829 274.257C262.071 274.604 262.227 275.003 262.298 275.455H261.258C261.162 275.062 260.974 274.737 260.696 274.479C260.417 274.22 260.048 274.091 259.588 274.091C258.912 274.091 258.379 274.385 257.99 274.973C257.604 275.561 257.409 276.386 257.406 277.449H257.474C257.633 277.207 257.822 277.001 258.041 276.831C258.263 276.658 258.507 276.524 258.774 276.43C259.041 276.337 259.324 276.29 259.622 276.29C260.122 276.29 260.579 276.415 260.994 276.665C261.409 276.912 261.741 277.254 261.991 277.692C262.241 278.126 262.366 278.625 262.366 279.188C262.366 279.727 262.246 280.222 262.004 280.67C261.763 281.116 261.423 281.472 260.986 281.736C260.551 281.997 260.04 282.125 259.452 282.119ZM259.452 281.182C259.809 281.182 260.131 281.092 260.415 280.913C260.702 280.734 260.927 280.494 261.092 280.193C261.26 279.892 261.344 279.557 261.344 279.188C261.344 278.827 261.263 278.499 261.101 278.203C260.942 277.905 260.721 277.668 260.44 277.491C260.162 277.315 259.844 277.227 259.486 277.227C259.216 277.227 258.964 277.281 258.731 277.389C258.498 277.494 258.294 277.639 258.118 277.824C257.944 278.009 257.808 278.22 257.709 278.459C257.609 278.695 257.559 278.943 257.559 279.205C257.559 279.551 257.64 279.875 257.802 280.176C257.967 280.477 258.192 280.72 258.476 280.905C258.763 281.089 259.088 281.182 259.452 281.182ZM266.889 282.119C266.247 282.119 265.7 281.945 265.248 281.595C264.796 281.243 264.451 280.733 264.213 280.065C263.974 279.395 263.855 278.585 263.855 277.636C263.855 276.693 263.974 275.888 264.213 275.22C264.454 274.55 264.801 274.038 265.252 273.686C265.707 273.331 266.252 273.153 266.889 273.153C267.525 273.153 268.069 273.331 268.521 273.686C268.975 274.038 269.322 274.55 269.561 275.22C269.802 275.888 269.923 276.693 269.923 277.636C269.923 278.585 269.803 279.395 269.565 280.065C269.326 280.733 268.981 281.243 268.529 281.595C268.078 281.945 267.531 282.119 266.889 282.119ZM266.889 281.182C267.525 281.182 268.019 280.875 268.372 280.261C268.724 279.648 268.9 278.773 268.9 277.636C268.9 276.881 268.819 276.237 268.657 275.706C268.498 275.175 268.268 274.77 267.967 274.491C267.669 274.213 267.309 274.074 266.889 274.074C266.258 274.074 265.765 274.385 265.41 275.007C265.055 275.626 264.877 276.503 264.877 277.636C264.877 278.392 264.957 279.034 265.116 279.562C265.275 280.091 265.504 280.493 265.802 280.768C266.103 281.044 266.465 281.182 266.889 281.182ZM274.389 282.119C273.747 282.119 273.2 281.945 272.748 281.595C272.296 281.243 271.951 280.733 271.713 280.065C271.474 279.395 271.355 278.585 271.355 277.636C271.355 276.693 271.474 275.888 271.713 275.22C271.954 274.55 272.301 274.038 272.752 273.686C273.207 273.331 273.752 273.153 274.389 273.153C275.025 273.153 275.569 273.331 276.021 273.686C276.475 274.038 276.822 274.55 277.061 275.22C277.302 275.888 277.423 276.693 277.423 277.636C277.423 278.585 277.303 279.395 277.065 280.065C276.826 280.733 276.481 281.243 276.029 281.595C275.578 281.945 275.031 282.119 274.389 282.119ZM274.389 281.182C275.025 281.182 275.519 280.875 275.872 280.261C276.224 279.648 276.4 278.773 276.4 277.636C276.4 276.881 276.319 276.237 276.157 275.706C275.998 275.175 275.768 274.77 275.467 274.491C275.169 274.213 274.809 274.074 274.389 274.074C273.758 274.074 273.265 274.385 272.91 275.007C272.555 275.626 272.377 276.503 272.377 277.636C272.377 278.392 272.457 279.034 272.616 279.562C272.775 280.091 273.004 280.493 273.302 280.768C273.603 281.044 273.965 281.182 274.389 281.182ZM284.173 280.432L279.366 275.625L280.014 274.977L284.82 279.784L284.173 280.432ZM280.014 280.432L279.366 279.784L284.173 274.977L284.82 275.625L280.014 280.432ZM289.85 282.119C289.492 282.114 289.134 282.045 288.776 281.915C288.418 281.784 288.091 281.564 287.796 281.254C287.501 280.942 287.263 280.52 287.084 279.989C286.905 279.455 286.816 278.784 286.816 277.977C286.816 277.205 286.888 276.52 287.033 275.923C287.178 275.324 287.388 274.82 287.664 274.411C287.939 273.999 288.272 273.686 288.661 273.473C289.053 273.26 289.495 273.153 289.986 273.153C290.475 273.153 290.91 273.251 291.29 273.447C291.674 273.641 291.986 273.911 292.228 274.257C292.469 274.604 292.626 275.003 292.697 275.455H291.657C291.56 275.062 291.373 274.737 291.094 274.479C290.816 274.22 290.447 274.091 289.986 274.091C289.31 274.091 288.778 274.385 288.388 274.973C288.002 275.561 287.807 276.386 287.805 277.449H287.873C288.032 277.207 288.221 277.001 288.439 276.831C288.661 276.658 288.905 276.524 289.172 276.43C289.439 276.337 289.722 276.29 290.02 276.29C290.52 276.29 290.978 276.415 291.393 276.665C291.807 276.912 292.14 277.254 292.39 277.692C292.64 278.126 292.765 278.625 292.765 279.188C292.765 279.727 292.644 280.222 292.403 280.67C292.161 281.116 291.822 281.472 291.384 281.736C290.949 281.997 290.438 282.125 289.85 282.119ZM289.85 281.182C290.208 281.182 290.529 281.092 290.813 280.913C291.1 280.734 291.326 280.494 291.491 280.193C291.658 279.892 291.742 279.557 291.742 279.188C291.742 278.827 291.661 278.499 291.499 278.203C291.34 277.905 291.12 277.668 290.839 277.491C290.56 277.315 290.242 277.227 289.884 277.227C289.614 277.227 289.363 277.281 289.13 277.389C288.897 277.494 288.692 277.639 288.516 277.824C288.343 278.009 288.206 278.22 288.107 278.459C288.008 278.695 287.958 278.943 287.958 279.205C287.958 279.551 288.039 279.875 288.201 280.176C288.366 280.477 288.59 280.72 288.874 280.905C289.161 281.089 289.486 281.182 289.85 281.182ZM297.287 282.119C296.645 282.119 296.098 281.945 295.646 281.595C295.195 281.243 294.85 280.733 294.611 280.065C294.372 279.395 294.253 278.585 294.253 277.636C294.253 276.693 294.372 275.888 294.611 275.22C294.852 274.55 295.199 274.038 295.651 273.686C296.105 273.331 296.651 273.153 297.287 273.153C297.923 273.153 298.468 273.331 298.919 273.686C299.374 274.038 299.72 274.55 299.959 275.22C300.2 275.888 300.321 276.693 300.321 277.636C300.321 278.585 300.202 279.395 299.963 280.065C299.725 280.733 299.379 281.243 298.928 281.595C298.476 281.945 297.929 282.119 297.287 282.119ZM297.287 281.182C297.923 281.182 298.418 280.875 298.77 280.261C299.122 279.648 299.298 278.773 299.298 277.636C299.298 276.881 299.218 276.237 299.056 275.706C298.896 275.175 298.666 274.77 298.365 274.491C298.067 274.213 297.708 274.074 297.287 274.074C296.656 274.074 296.164 274.385 295.808 275.007C295.453 275.626 295.276 276.503 295.276 277.636C295.276 278.392 295.355 279.034 295.514 279.562C295.673 280.091 295.902 280.493 296.2 280.768C296.502 281.044 296.864 281.182 297.287 281.182ZM304.787 282.119C304.145 282.119 303.598 281.945 303.146 281.595C302.695 281.243 302.35 280.733 302.111 280.065C301.872 279.395 301.753 278.585 301.753 277.636C301.753 276.693 301.872 275.888 302.111 275.22C302.352 274.55 302.699 274.038 303.151 273.686C303.605 273.331 304.151 273.153 304.787 273.153C305.423 273.153 305.968 273.331 306.419 273.686C306.874 274.038 307.22 274.55 307.459 275.22C307.7 275.888 307.821 276.693 307.821 277.636C307.821 278.585 307.702 279.395 307.463 280.065C307.225 280.733 306.879 281.243 306.428 281.595C305.976 281.945 305.429 282.119 304.787 282.119ZM304.787 281.182C305.423 281.182 305.918 280.875 306.27 280.261C306.622 279.648 306.798 278.773 306.798 277.636C306.798 276.881 306.718 276.237 306.556 275.706C306.396 275.175 306.166 274.77 305.865 274.491C305.567 274.213 305.208 274.074 304.787 274.074C304.156 274.074 303.664 274.385 303.308 275.007C302.953 275.626 302.776 276.503 302.776 277.636C302.776 278.392 302.855 279.034 303.014 279.562C303.173 280.091 303.402 280.493 303.7 280.768C304.002 281.044 304.364 281.182 304.787 281.182ZM313.191 277.636C313.191 276.562 313.33 275.575 313.608 274.675C313.889 273.771 314.29 272.94 314.81 272.182H315.696C315.492 272.463 315.3 272.81 315.121 273.222C314.945 273.631 314.79 274.081 314.656 274.572C314.523 275.061 314.418 275.567 314.341 276.089C314.267 276.612 314.23 277.128 314.23 277.636C314.23 278.312 314.296 278.999 314.426 279.695C314.557 280.391 314.733 281.037 314.955 281.634C315.176 282.23 315.423 282.716 315.696 283.091H314.81C314.29 282.332 313.889 281.503 313.608 280.602C313.33 279.699 313.191 278.71 313.191 277.636ZM320.231 273.273V282H319.175V274.381H319.123L316.993 275.795V274.722L319.175 273.273H320.231ZM323.491 280.884C323.281 280.884 323.101 280.808 322.95 280.658C322.8 280.507 322.724 280.327 322.724 280.116C322.724 279.906 322.8 279.726 322.95 279.575C323.101 279.425 323.281 279.349 323.491 279.349C323.702 279.349 323.882 279.425 324.032 279.575C324.183 279.726 324.258 279.906 324.258 280.116C324.258 280.256 324.223 280.384 324.152 280.5C324.084 280.616 323.991 280.71 323.875 280.781C323.761 280.849 323.633 280.884 323.491 280.884ZM323.491 276.469C323.281 276.469 323.101 276.393 322.95 276.243C322.8 276.092 322.724 275.912 322.724 275.702C322.724 275.491 322.8 275.311 322.95 275.161C323.101 275.01 323.281 274.935 323.491 274.935C323.702 274.935 323.882 275.01 324.032 275.161C324.183 275.311 324.258 275.491 324.258 275.702C324.258 275.841 324.223 275.969 324.152 276.085C324.084 276.202 323.991 276.295 323.875 276.366C323.761 276.435 323.633 276.469 323.491 276.469ZM329.114 273.273V282H328.057V274.381H328.006L325.876 275.795V274.722L328.057 273.273H329.114ZM333.789 277.636C333.789 278.71 333.648 279.699 333.367 280.602C333.089 281.503 332.689 282.332 332.17 283.091H331.283C331.488 282.81 331.678 282.463 331.854 282.051C332.033 281.642 332.189 281.193 332.323 280.705C332.456 280.213 332.56 279.706 332.634 279.183C332.711 278.658 332.749 278.142 332.749 277.636C332.749 276.96 332.684 276.274 332.553 275.578C332.422 274.882 332.246 274.236 332.025 273.639C331.803 273.043 331.556 272.557 331.283 272.182H332.17C332.689 272.94 333.089 273.771 333.367 274.675C333.648 275.575 333.789 276.562 333.789 277.636Z" fill="#2C2D33"/>
<defs>
<clipPath id="clip0_57_22849">
<rect width="20" height="20" fill="white" transform="translate(97 217)"/>
</clipPath>
</defs>
</svg>
