<svg xmlns="http://www.w3.org/2000/svg" width="222" height="22" viewBox="0 0 222 22">
    <g fill="none" fill-rule="evenodd">
        <g fill-rule="nonzero">
            <path fill="#FFF" d="M125 16.903V1h6.193c1.242 0 2.365.204 3.327.612.962.407 1.763.958 2.425 1.671a6.77 6.77 0 0 1 1.483 2.529c.34.978.5 2.018.5 3.16 0 1.121-.16 2.181-.5 3.16a7.35 7.35 0 0 1-1.483 2.528c-.662.714-1.463 1.264-2.425 1.672-.962.408-2.065.612-3.327.612H125v-.041zm6.193-2.528c1.603 0 2.806-.49 3.627-1.468.822-.979 1.243-2.304 1.243-3.956 0-.835-.1-1.57-.32-2.242-.221-.673-.522-1.244-.923-1.713a3.945 3.945 0 0 0-1.523-1.08 5.624 5.624 0 0 0-2.104-.388h-3.427v10.847h3.427zM140.853 3.324V1h2.425v2.324zM159.19 3.324V1h2.425v2.324zM171.837 16.067c-.742.57-1.624.856-2.686.856-.681 0-1.303-.122-1.804-.346a2.664 2.664 0 0 1-1.242-1.122c-.2-.285-.341-.632-.421-1.02a7.056 7.056 0 0 1-.12-1.406V7.015h-2.285V5.159h2.285V1h2.385v4.139h3.487v1.855h-3.487v6.056c0 1.141.5 1.712 1.523 1.712.32 0 .6-.061.821-.163.24-.102.441-.224.602-.347l.942 1.815zM186.547 16.923V1h2.425v15.923zM183.38 14.069c0 .367.06.632.16.795.121.163.301.245.602.245.26 0 .48-.041.621-.143l.28 1.631c-.2.102-.44.163-.7.224a5.12 5.12 0 0 1-.702.062c-.541 0-1.042-.123-1.483-.388-.461-.265-.782-.734-.942-1.407-.481.694-1.062 1.183-1.724 1.448a5.35 5.35 0 0 1-2.124.428c-.802 0-1.523-.143-2.164-.448a4.704 4.704 0 0 1-1.624-1.244 5.417 5.417 0 0 1-1.002-1.876c-.24-.713-.34-1.488-.34-2.324 0-.836.12-1.61.34-2.345a5.607 5.607 0 0 1 1.022-1.876c.441-.53.982-.937 1.604-1.243.62-.306 1.342-.449 2.124-.449.741 0 1.423.143 2.044.449.641.285 1.203.795 1.684 1.468V5.424h2.344v8.645h-.02zm-2.344-3.018c0-.53-.08-1.019-.22-1.488a3.412 3.412 0 0 0-.622-1.203 2.733 2.733 0 0 0-1.022-.815c-.401-.204-.882-.286-1.403-.286-.541 0-1.002.102-1.383.306-.38.204-.722.469-.982.816-.26.346-.461.754-.581 1.202-.12.47-.2.938-.2 1.468s.06 1 .2 1.468c.12.47.32.857.58 1.203.261.347.582.612.983.816.38.204.842.285 1.383.285.54 0 1.002-.102 1.403-.285a3.09 3.09 0 0 0 1.022-.816c.28-.346.48-.754.621-1.203.14-.448.22-.937.22-1.468zM157.006 15.455c0 .938-.1 1.774-.28 2.508a4.624 4.624 0 0 1-1.043 1.957 4.998 4.998 0 0 1-2.345 1.51c-.921.285-1.883.407-2.906.407-1.984 0-3.667-.469-5.05-1.407l1.102-2.039a6.101 6.101 0 0 0 1.784.877c.661.224 1.403.326 2.184.326.562 0 1.083-.061 1.584-.204a3.308 3.308 0 0 0 1.282-.632c.361-.285.642-.652.862-1.1.2-.45.3-1 .3-1.652v-1.142a4.625 4.625 0 0 1-1.823 1.55 5.599 5.599 0 0 1-2.325.489c-.801 0-1.543-.143-2.204-.449a5.464 5.464 0 0 1-1.704-1.223c-.48-.51-.842-1.142-1.102-1.855-.26-.714-.38-1.489-.38-2.325 0-.856.14-1.63.4-2.344a5.672 5.672 0 0 1 1.122-1.876 5.011 5.011 0 0 1 1.724-1.244c.661-.305 1.403-.448 2.204-.448.842 0 1.604.163 2.305.51.702.346 1.283.856 1.784 1.55V5.403h2.525v10.051zm-2.505-4.424c0-.51-.08-.999-.22-1.448a3.34 3.34 0 0 0-.682-1.162 3.1 3.1 0 0 0-1.102-.774 3.88 3.88 0 0 0-1.503-.286c-.582 0-1.083.102-1.483.286-.421.183-.762.448-1.063.795a3.26 3.26 0 0 0-.641 1.162c-.14.448-.2.917-.2 1.427s.08 1 .22 1.448c.14.448.36.836.641 1.182.281.347.642.612 1.063.795.42.184.921.286 1.483.286.56 0 1.062-.102 1.483-.286.44-.183.801-.448 1.102-.795.3-.326.521-.734.681-1.182.14-.449.22-.938.22-1.448zM159.19 5.159h2.425v11.764h-2.425zM140.853 5.159h2.425v11.744h-2.425z"/>
            <path fill="#DC1928" d="M221.86 21.51c0 .225-.18.429-.421.429h-9.6a.415.415 0 0 1-.42-.428v-9.766c0-.225.18-.428.42-.428h9.6c.22 0 .42.183.42.428v9.766z"/>
            <path fill="#FFF" d="M213.262 16.617c0 1.468.902 2.733 2.184 3.222v-6.443c-1.282.49-2.184 1.754-2.184 3.221M216.649 13.172c-.1 0-.18 0-.28.02v.245h.02c1.282 0 2.324 1.02 2.324 2.243 0 1.223-1.062 2.202-2.345 2.202v2.181c.1 0 .18.02.281.02 1.864 0 3.387-1.549 3.387-3.445 0-1.917-1.523-3.466-3.387-3.466"/>
            <g fill="#FFF">
                <path d="M196.948 17.31h3.588V5.75h-3.588v11.56zm0-13.19h3.588V1.407h-3.588v2.711zm5.191-2.712V17.31h8.117v-3.385h-4.349V4.792h2.725c1.383 0 2.405.408 3.107 1.224.701.815 1.042 1.916 1.042 3.323 0 .285-.02.55-.04.815h3.888c.02-.265.04-.53.04-.795 0-1.121-.18-2.181-.521-3.16a6.898 6.898 0 0 0-1.543-2.528c-.682-.693-1.523-1.244-2.525-1.652-1.003-.407-2.145-.611-3.448-.611h-6.493z"/>
            </g>
        </g>
        <path fill="#FFF" d="M14.283 1.682L8.395 17H6.164L.276 1.682h2.323L7.291 14.47l4.761-12.788h2.231zm11.914 9.039c0 .184-.004.341-.011.471-.008.13-.02.234-.035.311h-9.384c.061 1.242.452 2.208 1.173 2.898.72.69 1.671 1.035 2.852 1.035 1.395 0 2.576-.521 3.542-1.564l1.334 1.311a6.668 6.668 0 0 1-2.127 1.541c-.806.368-1.737.552-2.795.552-.966 0-1.828-.157-2.587-.471a5.49 5.49 0 0 1-1.921-1.3 5.625 5.625 0 0 1-1.196-1.967 7.183 7.183 0 0 1-.414-2.472c0-.874.134-1.694.402-2.461a5.894 5.894 0 0 1 1.162-2.001 5.496 5.496 0 0 1 1.84-1.346c.72-.33 1.541-.494 2.461-.494.874 0 1.664.153 2.369.46a5.331 5.331 0 0 1 1.806 1.265c.498.537.877 1.17 1.138 1.897.26.729.391 1.507.391 2.335zm-2.07-.759c-.107-1.15-.506-2.016-1.196-2.599-.69-.583-1.51-.874-2.461-.874-.521 0-.997.084-1.426.253-.43.169-.805.41-1.127.724a3.46 3.46 0 0 0-.759 1.104 4.468 4.468 0 0 0-.345 1.392h7.314zm11.224-2.806a3.55 3.55 0 0 0-.633-.264 2.517 2.517 0 0 0-.747-.104 2.63 2.63 0 0 0-1.15.264c-.368.177-.698.43-.989.76-.291.33-.521.743-.69 1.241-.169.499-.253 1.07-.253 1.714V17h-2.001V5.04h2.001v2.024a5.631 5.631 0 0 1 1.484-1.61 3.3 3.3 0 0 1 1.989-.644c.353 0 .67.042.954.127.284.084.51.187.679.31l-.644 1.909zM37.927 17V5.04h2.001V17h-2.001zm0-14.306V.578h2.001v2.116h-2.001zm11.546-.46a12.169 12.169 0 0 0-.633-.138 4.328 4.328 0 0 0-.816-.069c-.552 0-.97.115-1.254.345-.283.23-.425.636-.425 1.219V5.04h2.806v1.656h-2.806V17h-2.001V6.696h-2.047V5.04h2.047V3.637c0-1.12.318-1.951.954-2.496.637-.544 1.507-.816 2.611-.816.337 0 .675.023 1.012.069.337.046.613.107.828.184l-.276 1.656zm10.258 11.96c-.506.72-1.096 1.273-1.771 1.656-.675.383-1.449.575-2.323.575-1.303 0-2.327-.395-3.07-1.184-.744-.79-1.116-1.906-1.116-3.347V5.04h2.001v6.394c0 .353.034.713.104 1.081.069.368.199.701.39 1 .192.3.46.545.806.736.345.192.793.288 1.345.288.521 0 1.004-.088 1.449-.264.445-.177.828-.43 1.15-.76a3.57 3.57 0 0 0 .759-1.184c.184-.46.276-.966.276-1.518V5.04h2.001v10.534c0 .813-.088 1.541-.264 2.185a4.172 4.172 0 0 1-.955 1.725c-.49.552-1.123.981-1.898 1.288-.774.307-1.69.46-2.748.46-.95 0-1.802-.126-2.553-.38a7.589 7.589 0 0 1-2.047-1.046l.989-1.587a4.935 4.935 0 0 0 1.771.931 6.955 6.955 0 0 0 1.886.265c.506 0 .993-.061 1.46-.184a3.24 3.24 0 0 0 1.22-.598c.345-.276.62-.632.827-1.07.208-.437.311-.97.311-1.598v-1.771zM83.904 17h-2.185l-2.898-9.384L75.877 17h-2.185L70.38 5.04h2.139l2.415 9.545 2.99-9.545h1.84l2.967 9.545 2.438-9.545h2.047L83.904 17zm5.75 0V5.04h2.001V17h-2.001zm0-14.306V.578h2.001v2.116h-2.001zm12.719 13.777c-.69.537-1.556.805-2.599.805-.705 0-1.322-.123-1.852-.368a2.928 2.928 0 0 1-1.276-1.15 2.972 2.972 0 0 1-.391-.977c-.077-.36-.115-.825-.115-1.392V6.696h-2.507V5.04h2.507V.578h2.001V5.04h3.864v1.656h-3.864v6.693c0 1.38.613 2.07 1.84 2.07.353 0 .655-.054.909-.161.253-.107.463-.222.632-.345l.851 1.518zm2.116.529V.578h2.001v6.44c.49-.736 1.077-1.296 1.76-1.679.682-.383 1.46-.575 2.334-.575 1.303 0 2.327.395 3.07 1.184.744.79 1.116 1.906 1.116 3.347V17h-2.001V9.755c0-.353-.035-.713-.104-1.081a2.785 2.785 0 0 0-.39-1 2.18 2.18 0 0 0-.817-.737c-.353-.191-.805-.287-1.357-.287-.506 0-.981.088-1.426.264-.445.177-.828.43-1.15.76a3.57 3.57 0 0 0-.759 1.184c-.184.46-.276.966-.276 1.518V17h-2.001z"/>
    </g>
</svg>
