<svg width="14" height="14" viewBox="0 0 14 14" fill="none" xmlns="http://www.w3.org/2000/svg">
<path d="M5.09566 12.8549V10.8103C5.09565 10.2922 5.51695 9.8713 6.03879 9.86804H7.95491C8.47909 9.86804 8.90402 10.2899 8.90402 10.8103V12.849C8.904 13.2983 9.26919 13.6636 9.7218 13.6668H11.0291C11.6396 13.6684 12.2257 13.4287 12.6579 13.0006C13.0902 12.5726 13.3332 11.9913 13.3332 11.3852V5.57739C13.3332 5.08775 13.1145 4.6233 12.7362 4.30916L8.29516 0.783008C7.51885 0.166244 6.41009 0.186168 5.65676 0.830419L1.31118 4.30916C0.914998 4.61404 0.678205 5.07987 0.666504 5.57739V11.3793C0.666504 12.6426 1.69809 13.6668 2.97062 13.6668H4.24803C4.46595 13.6684 4.6755 13.5835 4.83015 13.4311C4.98481 13.2787 5.07179 13.0713 5.07178 12.8549H5.09566Z" fill="#023E8A"/>
</svg>
