<svg width="20" height="20" viewBox="0 0 20 20" fill="none" xmlns="http://www.w3.org/2000/svg">
<path d="M16.4747 9.70428C15.8659 8.99341 15.5893 8.37738 15.5893 7.3308V6.97495C15.5893 5.61112 15.2754 4.73239 14.593 3.85367C13.5411 2.489 11.7704 1.6665 10.0369 1.6665H9.96323C8.26621 1.6665 6.55097 2.45123 5.48091 3.76051C4.76119 4.65686 4.41085 5.57335 4.41085 6.97495V7.3308C4.41085 8.37738 4.15245 8.99341 3.52549 9.70428C3.06417 10.228 2.91675 10.9011 2.91675 11.6296C2.91675 12.3589 3.1561 13.0497 3.63647 13.6111C4.26343 14.2842 5.1488 14.7139 6.05321 14.7886C7.36262 14.938 8.67203 14.9943 10.0005 14.9943C11.3281 14.9943 12.6375 14.9003 13.9478 14.7886C14.8514 14.7139 15.7367 14.2842 16.3637 13.6111C16.8432 13.0497 17.0834 12.3589 17.0834 11.6296C17.0834 10.9011 16.936 10.228 16.4747 9.70428Z" fill="#474787"/>
<path opacity="0.4" d="M11.674 16.0233C11.2574 15.9343 8.71888 15.9343 8.30229 16.0233C7.94616 16.1055 7.56104 16.2969 7.56104 16.7165C7.58174 17.1168 7.81613 17.4702 8.14079 17.6943L8.13996 17.6951C8.55987 18.0224 9.05266 18.2306 9.56864 18.3053C9.8436 18.343 10.1235 18.3414 10.4084 18.3053C10.9236 18.2306 11.4164 18.0224 11.8363 17.6951L11.8355 17.6943C12.1601 17.4702 12.3945 17.1168 12.4152 16.7165C12.4152 16.2969 12.0301 16.1055 11.674 16.0233Z" fill="#474787"/>
</svg>
